<?xml version="1.0" encoding="UTF-8"?>
<svg version="1.1" xmlns="http://www.w3.org/2000/svg" width="500" height="500">
<path d="M0 0 C165 0 330 0 500 0 C500 165 500 330 500 500 C335 500 170 500 0 500 C0 335 0 170 0 0 Z " fill="#FFFEFE" transform="translate(0,0)"/>
<path d="M0 0 C1.10649902 0.31348389 1.10649902 0.31348389 2.23535156 0.63330078 C21.14951019 6.05882759 36.32464613 14.96808034 51 28 C51.86238281 28.74894531 52.72476563 29.49789062 53.61328125 30.26953125 C67.09528563 42.79366676 77.62092529 61.53106321 83 79 C83.28617188 79.91394531 83.57234375 80.82789063 83.8671875 81.76953125 C91.68212826 108.37754383 88.12752194 138.06093072 77 163 C76.54882812 164.02609375 76.09765625 165.0521875 75.6328125 166.109375 C66.91855747 184.71947895 51.7283667 202.47470103 34 213 C33.12988281 213.56460938 32.25976562 214.12921875 31.36328125 214.7109375 C6.24512504 230.40550168 -26.40740582 235.72400297 -55.39208984 229.48510742 C-57.82503285 228.86187951 -60.22333214 228.17192203 -62.625 227.4375 C-63.48601318 227.17573975 -64.34702637 226.91397949 -65.23413086 226.64428711 C-73.64419289 223.97446311 -81.33530495 220.33932949 -89 216 C-90.49080078 215.16855469 -90.49080078 215.16855469 -92.01171875 214.3203125 C-98.95344428 210.18102395 -104.77915261 204.99080236 -110.55664062 199.39648438 C-111.93803242 198.0599551 -113.33585924 196.74047557 -114.734375 195.421875 C-120.30431954 190.0544739 -124.83574177 184.50988259 -129 178 C-129.48855469 177.29101562 -129.97710937 176.58203125 -130.48046875 175.8515625 C-140.67899483 160.2666835 -147.3466043 139.63598177 -148 121 C-148.03996094 119.88625 -148.07992187 118.7725 -148.12109375 117.625 C-148.60057927 90.54817089 -141.01818543 65.89910138 -125 44 C-124.43667969 43.21367187 -123.87335938 42.42734375 -123.29296875 41.6171875 C-104.24264129 16.00855058 -76.59716777 3.03091633 -46.17578125 -3.6171875 C-30.57115589 -5.49818785 -15.0291919 -4.47174998 0 0 Z " fill="#FDBB58" transform="translate(280,99)"/>
<path d="M0 0 C40.92 0 81.84 0 124 0 C124 25.74 124 51.48 124 78 C108.16 78.495 108.16 78.495 92 79 C92.66 80.32 93.32 81.64 94 83 C94.33 92.9 94.66 102.8 95 113 C71.9 113 48.8 113 25 113 C25 84 25 84 28 78 C18.76 78 9.52 78 0 78 C0 52.26 0 26.52 0 0 Z " fill="#181821" transform="translate(188,140)"/>
<path d="M0 0 C36.3 0 72.6 0 110 0 C110 21.78 110 43.56 110 66 C78 66 78 66 65 61 C65 60.67 65 60.34 65 60 C75.89 60 86.78 60 98 60 C98 42.51 98 25.02 98 7 C81.17 7 64.34 7 47 7 C47 13.27 47 19.54 47 26 C45.35 26.66 43.7 27.32 42 28 C41.54625 27.030625 41.0925 26.06125 40.625 25.0625 C39.34213779 21.92920418 39.34213779 21.92920418 37 21 C37.50144531 21.69480469 38.00289062 22.38960937 38.51953125 23.10546875 C40.30280261 26.59202305 40.15272108 28.46385292 39.6875 32.3125 C39.56761719 33.38113281 39.44773438 34.44976562 39.32421875 35.55078125 C39.21722656 36.35902344 39.11023438 37.16726562 39 38 C37.68 38 36.36 38 35 38 C35.11859375 37.34773438 35.2371875 36.69546875 35.359375 36.0234375 C36.04054793 31.40508501 36.38538981 28.79932702 34.3125 24.5 C30.9873729 20.905268 29.44584399 20.13144036 24.5625 19.6875 C20.70666403 20.02573123 18.99145272 20.59021865 16 23 C12.83044803 26.93461624 12.46651202 30.02077887 13 35 C14.11722305 37.89163614 15.01885074 39.45709741 17.7578125 40.97265625 C19.4756839 41.72031283 21.23638298 42.36775994 23 43 C23 44.32 23 45.64 23 47 C19.26512223 46.5020163 17.18762365 46.12508244 14 44 C14 44.66 14 45.32 14 46 C16.97 46.99 19.94 47.98 23 49 C23 50.32 23 51.64 23 53 C29.09310222 51.41049507 33.9004644 49.69716331 39 46 C39.66 46 40.32 46 41 46 C41.20496094 46.62648437 41.40992188 47.25296875 41.62109375 47.8984375 C41.89050781 48.71570313 42.15992188 49.53296875 42.4375 50.375 C42.70433594 51.18710938 42.97117188 51.99921875 43.24609375 52.8359375 C43.95179729 55.01031799 43.95179729 55.01031799 45 57 C44.34 57 43.68 57 43 57 C43 57.99 43 58.98 43 60 C28.15569656 67.63811019 18.04996342 66 0 66 C0 44.22 0 22.44 0 0 Z " fill="#F7B757" transform="translate(195,146)"/>
<path d="M0 0 C5.61 0 11.22 0 17 0 C17 0.99 17 1.98 17 3 C17.6290625 3.17015625 18.258125 3.3403125 18.90625 3.515625 C27.72618667 6.01283599 34.92253161 8.05482199 39.87890625 16.26171875 C42.09028406 21.66302832 41.98188865 27.23455286 42 33 C42.01405559 34.33724242 42.02838071 35.67448203 42.04296875 37.01171875 C42.05980732 40.34238734 42.04555142 43.6696851 42 47 C39.36 47 36.72 47 34 47 C34 43.04 34 39.08 34 35 C33.34 35 32.68 35 32 35 C31.855625 36.2375 31.71125 37.475 31.5625 38.75 C31.2271044 41.62481941 30.70982076 44.16071698 30 47 C15.81 47 1.62 47 -13 47 C-13.99 41.555 -13.99 41.555 -15 36 C-15.66 35.67 -16.32 35.34 -17 35 C-17 38.96 -17 42.92 -17 47 C-19.31 47 -21.62 47 -24 47 C-24.14620188 42.6670262 -24.2343773 38.33469362 -24.3125 34 C-24.35439453 32.77925781 -24.39628906 31.55851562 -24.43945312 30.30078125 C-24.56473112 21.03020934 -22.89973186 16.21592634 -16.6875 9.5 C-16.130625 9.005 -15.57375 8.51 -15 8 C-14.01 8.33 -13.02 8.66 -12 9 C-12.33 9.66 -12.66 10.32 -13 11 C-8.61667943 10.17812739 -4.32059823 9.09845718 0 8 C0 7.34 0 6.68 0 6 C-0.99 5.67 -1.98 5.34 -3 5 C-2.67 4.34 -2.34 3.68 -2 3 C-1.34 3 -0.68 3 0 3 C0 2.01 0 1.02 0 0 Z " fill="#FCBB58" transform="translate(239,204)"/>
<path d="M0 0 C15.84 0 31.68 0 48 0 C48 16.5 48 33 48 50 C39.894375 50.061875 39.894375 50.061875 31.625 50.125 C29.06806396 50.15231201 29.06806396 50.15231201 26.45947266 50.18017578 C25.11100581 50.18601603 23.76253545 50.1911127 22.4140625 50.1953125 C21.71176514 50.20554443 21.00946777 50.21577637 20.28588867 50.22631836 C18.52231164 50.2269548 16.75930576 50.12266864 15 50 C14.34 49.34 13.68 48.68 13 48 C13.9472424 44.09842118 15.02560368 40.5100379 17 37 C19.31523586 35.72954567 21.37127043 35.23058956 23.9375 34.65234375 C26.3299246 34.11565669 26.3299246 34.11565669 28.0625 31.25 C29.09235111 27.67984949 29.22184955 24.69749246 29 21 C28.67 21 28.34 21 28 21 C28 21.99 28 22.98 28 24 C27.34 24.33 26.68 24.66 26 25 C26.66 25.66 27.32 26.32 28 27 C27.81199332 29.82010018 26.97041657 31.03672426 25.1875 33.25 C23 35 23 35 19 35 C17.95498059 31.60368692 18 28.53498405 18 25 C17.94141059 22.28431033 17.94141059 22.28431033 17 20 C14.52363988 18.62533375 14.52363988 18.62533375 12 18 C12 17.34 12 16.68 12 16 C13.65 15.34 15.3 14.68 17 14 C13.62537285 14.54723683 11.91765 15.0549 9 17 C5.97670744 17.2610788 3.04123758 17.08815181 0 17 C0 11.39 0 5.78 0 0 Z " fill="#F5B556" transform="translate(243,154)"/>
<path d="M0 0 C40.26 0 80.52 0 122 0 C122 24.75 122 49.5 122 75 C111.11 75 100.22 75 89 75 C88.34 74.01 87.68 73.02 87 72 C96.9 72 106.8 72 117 72 C117 49.23 117 26.46 117 3 C79.71 3 42.42 3 4 3 C4 25.77 4 48.54 4 72 C12.58 72 21.16 72 30 72 C29.67 72.99 29.34 73.98 29 75 C19.43 75 9.86 75 0 75 C0 50.25 0 25.5 0 0 Z " fill="#E8AC53" transform="translate(189,142)"/>
<path d="M0 0 C40.92 0 81.84 0 124 0 C124 25.74 124 51.48 124 78 C122.515 77.505 122.515 77.505 121 77 C121.66 77 122.32 77 123 77 C123 52.25 123 27.5 123 2 C82.74 2 42.48 2 1 2 C1 26.75 1 51.5 1 77 C10.57 77 20.14 77 30 77 C30 76.34 30 75.68 30 75 C21.75 74.67 13.5 74.34 5 74 C5 51.23 5 28.46 5 5 C5.33 5 5.66 5 6 5 C6 27.44 6 49.88 6 73 C31.00848796 73.65176398 31.00848796 73.65176398 45 67 C46.98 66.505 46.98 66.505 49 66 C49 66.99 49 67.98 49 69 C49.99 69.495 49.99 69.495 51 70 C51 70.66 51 71.32 51 72 C49.42274653 72.70133599 47.83788667 73.385583 46.25 74.0625 C45.36828125 74.44535156 44.4865625 74.82820313 43.578125 75.22265625 C40.84743691 76.04600008 39.63098653 75.9773992 37 75 C37.33 74.34 37.66 73.68 38 73 C33.58064806 74.73617398 31.35133966 77.80762523 28.90869141 81.77050781 C27.72354638 84.67828439 27.6747013 87.16055396 27.5859375 90.296875 C27.54726562 91.50214844 27.50859375 92.70742187 27.46875 93.94921875 C27.4378125 95.20347656 27.406875 96.45773438 27.375 97.75 C27.33632812 99.01972656 27.29765625 100.28945312 27.2578125 101.59765625 C27.16355778 104.7316257 27.07794834 107.86558949 27 111 C29.31 111 31.62 111 34 111 C34 107.04 34 103.08 34 99 C34.99 99.33 35.98 99.66 37 100 C37.495 105.445 37.495 105.445 38 111 C52.19 111 66.38 111 81 111 C81 111.33 81 111.66 81 112 C62.52 112.33 44.04 112.66 25 113 C24.938125 108.33875 24.87625 103.6775 24.8125 98.875 C24.78518799 97.41562012 24.75787598 95.95624023 24.72973633 94.45263672 C24.72224365 93.29006348 24.71475098 92.12749023 24.70703125 90.9296875 C24.6913208 89.74616699 24.67561035 88.56264648 24.65942383 87.34326172 C25 84 25 84 28 78 C18.76 78 9.52 78 0 78 C0 52.26 0 26.52 0 0 Z " fill="#342C27" transform="translate(188,140)"/>
<path d="M0 0 C4.34426379 2.25567543 7.05791513 4.46846864 9 9 C9.2956238 12.62139152 8.87129186 15.51483255 8 19 C8.33 19.66 8.66 20.32 9 21 C7.5361389 25.39158329 5.02168662 25.87947433 1 28 C4.91211733 26.84414715 7.8745041 25.64465038 11 23 C11.33 24.32 11.66 25.64 12 27 C6.32206314 31.29788276 2.18404854 33.73876187 -5 34 C-5.08121094 33.37609375 -5.16242188 32.7521875 -5.24609375 32.109375 C-5.79429444 29.8507553 -5.79429444 29.8507553 -7.84765625 28.953125 C-8.57855469 28.72109375 -9.30945313 28.4890625 -10.0625 28.25 C-10.79597656 28.00765625 -11.52945313 27.7653125 -12.28515625 27.515625 C-12.85105469 27.34546875 -13.41695312 27.1753125 -14 27 C-14 26.34 -14 25.68 -14 25 C-11.03 25.99 -8.06 26.98 -5 28 C-5 26.68 -5 25.36 -5 24 C-5.721875 23.938125 -6.44375 23.87625 -7.1875 23.8125 C-10.87798635 22.7463595 -12.49572729 20.85208836 -15 18 C-16.53214888 14.93570224 -16.22938548 12.3834358 -16 9 C-14.48007896 5.81540354 -12.71704041 3.26420034 -10 1 C-6.38069302 -0.20643566 -3.80768995 -0.32268559 0 0 Z " fill="#232023" transform="translate(223,165)"/>
<path d="M0 0 C0.95648438 0.07863281 1.91296875 0.15726563 2.8984375 0.23828125 C5.58955419 0.68166007 7.34340363 1.215016 9.625 2.6875 C12.62953321 7.19429982 12.2026922 11.4009446 11.625 16.6875 C10.53969374 20.51438423 9.15642962 24.00249747 7.625 27.6875 C2.345 27.6875 -2.935 27.6875 -8.375 27.6875 C-11.83010258 20.34540702 -13.80747837 13.8490154 -12.375 5.6875 C-8.61258409 0.6379418 -6.07877964 -0.54594938 0 0 Z " fill="#FBBA58" transform="translate(248.375,172.3125)"/>
<path d="M0 0 C16.83 0 33.66 0 51 0 C51 17.49 51 34.98 51 53 C39.78 53.33 28.56 53.66 17 54 C16.67 53.34 16.34 52.68 16 52 C26.89 51.67 37.78 51.34 49 51 C49 34.5 49 18 49 1 C33.16 1 17.32 1 1 1 C1 6.61 1 12.22 1 18 C6.72916641 17.57245027 10.12796893 17.11268652 15 14 C17.8125 13.8125 17.8125 13.8125 20 14 C17.64046906 16.35953094 16.22104383 16.49141413 13 17 C13 17.66 13 18.32 13 19 C13.78375 19.226875 14.5675 19.45375 15.375 19.6875 C18 21 18 21 19.3125 23 C20.30666451 27.33817243 20.15484087 31.56983055 20 36 C22.31 35.34 24.62 34.68 27 34 C27.67801034 31.09926819 27.67801034 31.09926819 28 28 C27.34 27.34 26.68 26.68 26 26 C26.99 25.67 27.98 25.34 29 25 C28.505 22.03 28.505 22.03 28 19 C29.5 20.0625 29.5 20.0625 31 22 C31.58749462 27.18953581 30.87532596 30.63743647 28 35 C24.62179966 37.66700027 22.27505653 38.36643342 18 38 C17.87625 39.0725 17.7525 40.145 17.625 41.25 C17.10280215 44.3831871 16.70882871 46.38649726 15 49 C12.04412889 50.47793555 9.35002355 50.17053651 6.0625 50.1875 C4.81597656 50.20167969 3.56945312 50.21585938 2.28515625 50.23046875 C-1 50 -1 50 -4 48 C-5.1328125 45.6875 -5.1328125 45.6875 -6.125 43 C-6.45757812 42.113125 -6.79015625 41.22625 -7.1328125 40.3125 C-7.56207031 39.1678125 -7.56207031 39.1678125 -8 38 C-8.33 37.34 -8.66 36.68 -9 36 C-9.680625 36.639375 -10.36125 37.27875 -11.0625 37.9375 C-14.46408839 40.3258493 -16.90433701 40.67877153 -21 41 C-13.5 36 -13.5 36 -11 36 C-10.87625 35.484375 -10.7525 34.96875 -10.625 34.4375 C-10.12390235 32.48321915 -9.54332722 30.54939234 -8.9375 28.625 C-7.49954648 23.06491304 -7.54540515 19.21601406 -10 14 C-9.01 14.33 -8.02 14.66 -7 15 C-5.8125 17.5625 -5.8125 17.5625 -5 20 C-3.35 19.67 -1.7 19.34 0 19 C0 12.73 0 6.46 0 0 Z M-5 23 C-7.46489227 27.92978455 -6.62594961 34.8898118 -5.10546875 40.015625 C-4.15048758 42.37776925 -3.08488159 44.69462662 -2 47 C3.28 47 8.56 47 14 47 C17.08003232 39.58867222 19.32036309 33.0855224 18 25 C15.9354369 21.61411652 14.33835419 21.12531637 10.625 19.75 C3.82178012 18.34243727 0.58021451 18.58773736 -5 23 Z " fill="#362D28" transform="translate(242,153)"/>
<path d="M0 0 C-1 7.42857143 -1 7.42857143 -2 11 C0.35968744 13.09749995 1.54616994 13.96905704 4.75 14.1875 C5.4925 14.125625 6.235 14.06375 7 14 C7 14.66 7 15.32 7 16 C7.66 16 8.32 16 9 16 C9.28875 15.278125 9.5775 14.55625 9.875 13.8125 C10.57909482 12.05226294 11.30495264 10.30040277 12.0625 8.5625 C13.10139486 5.72285406 13.58292134 2.98906375 14 0 C14.66 0 15.32 0 16 0 C16 7.59 16 15.18 16 23 C11.3366693 23.04586883 6.6741186 23.08570572 2.01074219 23.10986328 C0.42380117 23.11993188 -1.16312125 23.13358767 -2.75 23.15087891 C-5.02869247 23.17509001 -7.30714006 23.18647422 -9.5859375 23.1953125 C-10.29744965 23.20563507 -11.00896179 23.21595764 -11.74203491 23.22659302 C-13.49631665 23.22699422 -15.24996709 23.12202209 -17 23 C-17.66 22.34 -18.32 21.68 -19 21 C-18.0527576 17.09842118 -16.97439632 13.5100379 -15 10 C-12.67652849 8.72502646 -10.635963 8.23012074 -8.0546875 7.67578125 C-5.60782109 7.11492155 -5.60782109 7.11492155 -4.0625 3.875 C-3.711875 2.92625 -3.36125 1.9775 -3 1 C-1 0 -1 0 0 0 Z " fill="#FAB957" transform="translate(275,181)"/>
<path d="M0 0 C3 1 3 1 5 3 C7.58354218 3.16687448 7.58354218 3.16687448 10 3 C8.68 3.33 7.36 3.66 6 4 C6 7.63 6 11.26 6 15 C7.32 15 8.64 15 10 15 C9.67 15.66 9.34 16.32 9 17 C8.01 16.67 7.02 16.34 6 16 C6.33 17.98 6.66 19.96 7 22 C7.66 20.68 8.32 19.36 9 18 C9 19.65 9 21.3 9 23 C10.65 22.01 12.3 21.02 14 20 C13.690625 20.495 13.38125 20.99 13.0625 21.5 C12.05164683 23.87847805 11.78946276 25.46558249 11.5625 28 C11.19716822 31.43540059 10.6310222 33.57136412 8 36 C7.01 36 6.02 36 5 36 C4.67 30.72 4.34 25.44 4 20 C0.88214887 20.64644661 0.88214887 20.64644661 0 23 C-4.47540984 24.26229508 -4.47540984 24.26229508 -7 23 C-8.09036928 20.0262656 -8.03864166 19.11592499 -7 16 C-5.35 15.67 -3.7 15.34 -2 15 C-2 14.34 -2 13.68 -2 13 C-3.32 12.67 -4.64 12.34 -6 12 C-6.88492145 9.52221994 -7.11637742 8.33943414 -6.25 5.8125 C-5 4 -5 4 -2 3 C-1.34 2.01 -0.68 1.02 0 0 Z " fill="#7E5D2B" transform="translate(244,100)"/>
<path d="M0 0 C-2 2 -2 2 -5.0625 3.5 C-8.08606682 4.67780112 -8.08606682 4.67780112 -9 7 C-8.34 6.67 -7.68 6.34 -7 6 C-5.04450744 5.87742539 -3.08429382 5.82447612 -1.125 5.8125 C-0.07570312 5.79832031 0.97359375 5.78414062 2.0546875 5.76953125 C4.93547071 5.99495063 6.56240208 6.51035683 9 8 C9 8.66 9 9.32 9 10 C8.45085937 9.84144531 7.90171875 9.68289062 7.3359375 9.51953125 C1.54455366 8.231481 -4.13107267 8.09891004 -9.5 10.6875 C-12.93295253 13.86298109 -14.8247562 15.8191882 -15.2109375 20.625 C-15.26798159 24.91471562 -15.20761586 28.86099403 -14 33 C-14.66 33 -15.32 33 -16 33 C-17.96450526 28.92631661 -18.10969146 25.92214774 -17.875 21.4375 C-17.74597646 14.21977164 -19.43238799 8.66135485 -22 2 C-22.35729936 0.67288808 -22.70085746 -0.65858186 -23 -2 C-19.5 -2.5 -19.5 -2.5 -16 -3 C-14.88625 -3.268125 -13.7725 -3.53625 -12.625 -3.8125 C-7.67477977 -4.06854587 -4.30940898 -2.27685327 0 0 Z " fill="#5B431F" transform="translate(220,154)"/>
<path d="M0 0 C10.23 0 20.46 0 31 0 C31 0.33 31 0.66 31 1 C16.645 1.495 16.645 1.495 2 2 C3.91219585 3.91219585 7.33645504 3.24435298 9.87890625 3.31640625 C10.5655687 3.33718735 11.25223114 3.35796844 11.95970154 3.37937927 C14.16052935 3.44494143 16.36147975 3.50379015 18.5625 3.5625 C20.05144514 3.60567892 21.54037773 3.649293 23.02929688 3.69335938 C26.68606553 3.8006293 30.34297318 3.90187772 34 4 C34 4.33 34 4.66 34 5 C19.645 5.495 19.645 5.495 5 6 C5.66 7.32 6.32 8.64 7 10 C7.31884766 13.20800781 7.31884766 13.20800781 7.4140625 16.953125 C7.44967285 18.16129883 7.4852832 19.36947266 7.52197266 20.61425781 C7.55597168 22.14405273 7.5899707 23.67384766 7.625 25.25 C7.74875 30.1175 7.8725 34.985 8 40 C-10.81 40 -29.62 40 -49 40 C-49 39.67 -49 39.34 -49 39 C-34.81 39 -20.62 39 -6 39 C-5.67 36.36 -5.34 33.72 -5 31 C-4.68676972 29.32943851 -4.36321485 27.66041075 -4 26 C-3.34 26 -2.68 26 -2 26 C-2 29.96 -2 33.92 -2 38 C0.64 38 3.28 38 6 38 C5.7790936 33.47725572 5.51812681 28.9576712 5.25 24.4375 C5.188125 23.16068359 5.12625 21.88386719 5.0625 20.56835938 C4.62422463 13.53769205 4.01023104 8.81157466 0 3 C0 2.01 0 1.02 0 0 Z " fill="#322A27" transform="translate(275,213)"/>
<path d="M0 0 C0.6509259 1.24735567 1.29551669 2.49801832 1.9375 3.75 C2.29714844 4.44609375 2.65679687 5.1421875 3.02734375 5.859375 C6.46227962 13.41899289 5.59336506 21.45987804 2.8515625 29.08984375 C2 31 2 31 0 34 C-1.9375 33.625 -1.9375 33.625 -4 33 C-4.33 32.34 -4.66 31.68 -5 31 C-3.68 31 -2.36 31 -1 31 C-1 30.01 -1 29.02 -1 28 C-1.66 27.34 -2.32 26.68 -3 26 C-2.01 25.67 -1.02 25.34 0 25 C0.66 25.33 1.32 25.66 2 26 C1.67 24.68 1.34 23.36 1 22 C-0.65 22 -2.3 22 -4 22 C-4.03738281 21.35933594 -4.07476562 20.71867187 -4.11328125 20.05859375 C-4.54337277 14.39993859 -5.46086906 10.07826187 -8 5 C-2.25 0 -2.25 0 0 0 Z " fill="#382E28" transform="translate(280,162)"/>
<path d="M0 0 C-2.35953094 2.35953094 -3.77895617 2.49141413 -7 3 C-7 3.66 -7 4.32 -7 5 C-6.21625 5.226875 -5.4325 5.45375 -4.625 5.6875 C-2 7 -2 7 -0.6875 9 C0.30666451 13.33817243 0.15484087 17.56983055 0 22 C2.31 21.34 4.62 20.68 7 20 C7.67801034 17.09926819 7.67801034 17.09926819 8 14 C7.34 13.34 6.68 12.68 6 12 C6.99 11.67 7.98 11.34 9 11 C8.505 8.03 8.505 8.03 8 5 C9.5 6.0625 9.5 6.0625 11 8 C11.58749462 13.18953581 10.87532596 16.63743647 8 21 C4.62179966 23.66700027 2.27505653 24.36643342 -2 24 C-2.12375 25.0725 -2.2475 26.145 -2.375 27.25 C-2.89719785 30.3831871 -3.29117129 32.38649726 -5 35 C-7.95587111 36.47793555 -10.64997645 36.17053651 -13.9375 36.1875 C-15.18402344 36.20167969 -16.43054688 36.21585938 -17.71484375 36.23046875 C-21 36 -21 36 -24 34 C-25.1875 30.875 -25.1875 30.875 -26 28 C-25.34 27.34 -24.68 26.68 -24 26 C-23.34 27.98 -22.68 29.96 -22 32 C-16.72 32.33 -11.44 32.66 -6 33 C-3.4429627 24.79617199 -1.19039839 16.42880483 -4 8 C-6.10584438 7.19436362 -6.10584438 7.19436362 -8.5625 6.8125 C-9.38878906 6.65394531 -10.21507812 6.49539062 -11.06640625 6.33203125 C-11.70449219 6.22246094 -12.34257812 6.11289063 -13 6 C-12.01 5.67 -11.02 5.34 -10 5 C-10 4.34 -10 3.68 -10 3 C-6.58168085 0.4606772 -4.24223102 -0.3636198 0 0 Z " fill="#2E2724" transform="translate(262,167)"/>
<path d="M0 0 C0.33 0 0.66 0 1 0 C1 22.44 1 44.88 1 68 C26.00848796 68.65176398 26.00848796 68.65176398 40 62 C41.98 61.505 41.98 61.505 44 61 C44 61.99 44 62.98 44 64 C44.99 64.495 44.99 64.495 46 65 C46 65.66 46 66.32 46 67 C44.42274653 67.70133599 42.83788667 68.385583 41.25 69.0625 C40.36828125 69.44535156 39.4865625 69.82820313 38.578125 70.22265625 C35.84743691 71.04600008 34.63098653 70.9773992 32 70 C32.33 69.34 32.66 68.68 33 68 C30.50638429 69.20381448 28.31856917 70.45428722 26 72 C25.505 71.01 25.505 71.01 25 70 C16.75 69.67 8.5 69.34 0 69 C0 46.23 0 23.46 0 0 Z " fill="#745937" transform="translate(193,145)"/>
<path d="M0 0 C2.75569447 2.18159145 4.43588747 3.87177494 6 7 C6.23076923 12.53846154 6.23076923 12.53846154 5 15 C1.56259645 13.75871539 -1.39387505 12.60612495 -4 10 C-4.75 6.8125 -4.75 6.8125 -5 4 C-7.43717258 4.27034634 -7.43717258 4.27034634 -10 5 C-12.15502531 8.23253796 -12.46856135 9.25150923 -12 13 C-10.12139167 15.5048111 -9.03898126 15.98700625 -6 17 C-6 18.32 -6 19.64 -6 21 C-10.41832494 19.64995627 -12.64842388 18.00638894 -15 14 C-15.87656309 9.62603871 -15.537455 6.84201283 -13.125 3.0625 C-9.24699241 -0.70144855 -5.21240222 -0.82822281 0 0 Z " fill="#F8B857" transform="translate(224,167)"/>
<path d="M0 0 C2.6875 -0.375 2.6875 -0.375 6 0 C9.21151702 2.93225467 10.82865879 4.77613423 11.4375 9.125 C10.8417585 13.03987272 10.02645779 15.04197273 7.125 17.75 C4.59019237 19.24106331 2.96195774 19 0 19 C0 16.69 0 14.38 0 12 C1.32 11.67 2.64 11.34 4 11 C2.68 11 1.36 11 0 11 C0 7.37 0 3.74 0 0 Z " fill="#E3A84F" transform="translate(250,104)"/>
<path d="M0 0 C0.33 0 0.66 0 1 0 C1.83930594 9.02253886 2.12224626 17.9401941 2 27 C4.31 27 6.62 27 9 27 C9 23.04 9 19.08 9 15 C9.99 15.33 10.98 15.66 12 16 C12.33 19.63 12.66 23.26 13 27 C27.19 27 41.38 27 56 27 C56 27.33 56 27.66 56 28 C37.52 28.33 19.04 28.66 0 29 C0 19.43 0 9.86 0 0 Z " fill="#624D33" transform="translate(213,224)"/>
<path d="M0 0 C0.33 0.66 0.66 1.32 1 2 C-1.97 1.505 -1.97 1.505 -5 1 C-3.60090738 5.45165834 -1.39864635 7.85625212 2 11 C2.66 11.66 3.32 12.32 4 13 C3.81199332 15.82010018 2.97041657 17.03672426 1.1875 19.25 C-1 21 -1 21 -5 21 C-6.04501941 17.60368692 -6 14.53498405 -6 11 C-6.05858941 8.28431033 -6.05858941 8.28431033 -7 6 C-9.47636012 4.62533375 -9.47636012 4.62533375 -12 4 C-12 3.34 -12 2.68 -12 2 C-4.4494382 -1.70125578 -4.4494382 -1.70125578 0 0 Z " fill="#E3A850" transform="translate(267,168)"/>
<path d="M0 0 C2.5 0.5 2.5 0.5 4.875 2.0625 C6.5 4.5 6.5 4.5 6.4375 8.125 C5.5 11.5 5.5 11.5 2.5 13.5 C-0.62026907 13.82502803 -2.64747535 14.01151479 -5.375 12.375 C-7.05468045 9.57553259 -6.95742277 7.70195936 -6.5 4.5 C-4.51677007 1.7087875 -3.37013879 0.67402776 0 0 Z " fill="#1F170A" transform="translate(235.5,267.5)"/>
<path d="M0 0 C0.99 0.33 1.98 0.66 3 1 C3 1.99 3 2.98 3 4 C0.69 5.32 -1.62 6.64 -4 8 C-0.08788267 6.84414715 2.8745041 5.64465038 6 3 C6.33 4.32 6.66 5.64 7 7 C1.32206314 11.29788276 -2.81595146 13.73876187 -10 14 C-10.08121094 13.37609375 -10.16242188 12.7521875 -10.24609375 12.109375 C-10.79429444 9.8507553 -10.79429444 9.8507553 -12.84765625 8.953125 C-13.57855469 8.72109375 -14.30945313 8.4890625 -15.0625 8.25 C-15.79597656 8.00765625 -16.52945313 7.7653125 -17.28515625 7.515625 C-17.85105469 7.34546875 -18.41695312 7.1753125 -19 7 C-19 6.34 -19 5.68 -19 5 C-16.03 5.99 -13.06 6.98 -10 8 C-9.34 6.68 -8.68 5.36 -8 4 C-5 2.875 -5 2.875 -2 2 C-1.34 1.34 -0.68 0.68 0 0 Z " fill="#46392C" transform="translate(228,185)"/>
<path d="M0 0 C2 0 2 0 3.61328125 1.01953125 C5.72995796 4.04250334 5.3165677 7.14310241 5.1875 10.6875 C5.17396484 11.38939453 5.16042969 12.09128906 5.14648438 12.81445312 C5.11120182 14.54329829 5.05739583 16.27174765 5 18 C4.360625 18.12375 3.72125 18.2475 3.0625 18.375 C2.381875 18.58125 1.70125 18.7875 1 19 C0.67 19.66 0.34 20.32 0 21 C-4.47540984 22.26229508 -4.47540984 22.26229508 -7 21 C-8.09036928 18.0262656 -8.03864166 17.11592499 -7 14 C-4.67793475 13.29508733 -2.34406932 12.62787571 0 12 C0.33 11.34 0.66 10.68 1 10 C1.66 10.33 2.32 10.66 3 11 C2.67 10.01 2.34 9.02 2 8 C2.66 8 3.32 8 4 8 C3.04134491 5.66924071 3.04134491 5.66924071 0 4 C0 2.68 0 1.36 0 0 Z " fill="#F2B354" transform="translate(244,102)"/>
<path d="M0 0 C1.02222656 -0.00515625 2.04445312 -0.0103125 3.09765625 -0.015625 C5.8984578 0.24634818 7.55340904 0.80925438 9.9375 2.25 C9.9375 2.91 9.9375 3.57 9.9375 4.25 C9.38835937 4.09144531 8.83921875 3.93289062 8.2734375 3.76953125 C2.48205366 2.481481 -3.19357267 2.34891004 -8.5625 4.9375 C-11.99545253 8.11298109 -13.8872562 10.0691882 -14.2734375 14.875 C-14.33048159 19.16471562 -14.27011586 23.11099403 -13.0625 27.25 C-13.7225 27.25 -14.3825 27.25 -15.0625 27.25 C-16.72477326 23.60883 -17.3349556 20.74709631 -17.3125 16.75 C-17.31765625 15.8321875 -17.3228125 14.914375 -17.328125 13.96875 C-16.82569433 8.82622431 -15.02582302 5.53389622 -11.0625 2.25 C-7.27079967 0.40663012 -4.19910039 -0.02123439 0 0 Z " fill="#47392C" transform="translate(219.0625,159.75)"/>
<path d="M0 0 C1.65 1.32 3.3 2.64 5 4 C8.12197478 2.6910428 8.12197478 2.6910428 10 0 C10.66 0 11.32 0 12 0 C12 4.29 12 8.58 12 13 C11.01 13 10.02 13 9 13 C8.67 11.35 8.34 9.7 8 8 C6.68 8 5.36 8 4 8 C3.67 9.65 3.34 11.3 3 13 C2.01 13 1.02 13 0 13 C0 8.71 0 4.42 0 0 Z " fill="#231A0C" transform="translate(244,268)"/>
<path d="M0 0 C3.375 -0.125 3.375 -0.125 7 0 C7.66 0.66 8.32 1.32 9 2 C8.77614278 4.01471498 8.54581684 6.03145256 8.19140625 8.02734375 C7.84464352 10.2112135 7.84464352 10.2112135 9 13 C8.01 13 7.02 13 6 13 C5.34 11.68 4.68 10.36 4 9 C3.67 10.32 3.34 11.64 3 13 C2.01 13 1.02 13 0 13 C0 8.71 0 4.42 0 0 Z " fill="#161007" transform="translate(218,268)"/>
<path d="M0 0 C0.33 0.66 0.66 1.32 1 2 C2.58941406 1.87431641 2.58941406 1.87431641 4.2109375 1.74609375 C5.59893625 1.64293168 6.98695835 1.54008337 8.375 1.4375 C9.07367188 1.38142578 9.77234375 1.32535156 10.4921875 1.26757812 C15.7734375 0.88671875 15.7734375 0.88671875 18 2 C20.55106029 2.15644172 23.07918663 2.25821389 25.6328125 2.31640625 C26.38464813 2.33718735 27.13648376 2.35796844 27.91110229 2.37937927 C30.31564085 2.44482705 32.72028967 2.50373738 35.125 2.5625 C36.75391771 2.60568977 38.38282422 2.64930421 40.01171875 2.69335938 C44.00769915 2.80050351 48.00379059 2.90178433 52 3 C52 3.33 52 3.66 52 4 C35.665 4.495 35.665 4.495 19 5 C25.93 7.475 25.93 7.475 33 10 C32.34 10.66 31.68 11.32 31 12 C23.575 9.03 23.575 9.03 16 6 C16 5.01 16 4.02 16 3 C10.39 3 4.78 3 -1 3 C-1 3.99 -1 4.98 -1 6 C-1.66 5.67 -2.32 5.34 -3 5 C-2.67 4.01 -2.34 3.02 -2 2 C-1.34 2 -0.68 2 0 2 C0 1.34 0 0.68 0 0 Z " fill="#252124" transform="translate(240,201)"/>
<path d="M0 0 C-0.99 0.66 -1.98 1.32 -3 2 C-3.99 1.67 -4.98 1.34 -6 1 C-9.27773504 1.75150023 -9.27773504 1.75150023 -11 5 C-11.66 3.35 -12.32 1.7 -13 0 C-13.99 0 -14.98 0 -16 0 C-15.34 0.33 -14.68 0.66 -14 1 C-14 1.66 -14 2.32 -14 3 C-15.98 3.66 -17.96 4.32 -20 5 C-23 0.25 -23 0.25 -23 -2 C-19.5 -2.5 -19.5 -2.5 -16 -3 C-14.88625 -3.268125 -13.7725 -3.53625 -12.625 -3.8125 C-7.67477977 -4.06854587 -4.30940898 -2.27685327 0 0 Z " fill="#9C7336" transform="translate(220,154)"/>
<path d="M0 0 C4.07877462 7.0547046 4.07877462 7.0547046 3.75 11 C3.5025 11.66 3.255 12.32 3 13 C1.02 13 -0.96 13 -3 13 C-3.33 12.01 -3.66 11.02 -4 10 C-3.67 9.34 -3.34 8.68 -3 8 C-4.32 8 -5.64 8 -7 8 C-7.33 7.01 -7.66 6.02 -8 5 C-2.25 0 -2.25 0 0 0 Z " fill="#322A27" transform="translate(280,162)"/>
<path d="M0 0 C0.66 1.32 1.32 2.64 2 4 C-0.24489796 10.62244898 -0.24489796 10.62244898 -3 12 C-5.31006744 12.1230891 -7.62418636 12.1755634 -9.9375 12.1875 C-11.18402344 12.20167969 -12.43054688 12.21585938 -13.71484375 12.23046875 C-17 12 -17 12 -20 10 C-21.1875 6.875 -21.1875 6.875 -22 4 C-21.34 3.34 -20.68 2.68 -20 2 C-19.34 3.98 -18.68 5.96 -18 8 C-12.72 8.33 -7.44 8.66 -2 9 C-1.34 6.03 -0.68 3.06 0 0 Z " fill="#5F4A32" transform="translate(258,191)"/>
<path d="M0 0 C0.66 0 1.32 0 2 0 C2.36923077 5.41538462 2.36923077 5.41538462 0.5 8.375 C0.005 8.91125 -0.49 9.4475 -1 10 C-1.66 9.67 -2.32 9.34 -3 9 C-3.33 9.99 -3.66 10.98 -4 12 C-6.60242414 13.64820195 -7.86248779 14 -11 14 C-11 11.03 -11 8.06 -11 5 C-6.72656908 4.63370592 -4.51187196 5.59185923 -1 8 C-0.67 5.36 -0.34 2.72 0 0 Z " fill="#4D3E2E" transform="translate(230,174)"/>
<path d="M0 0 C3.65362673 1.86128154 5.53176912 3.06353823 7.375 6.75 C7.58125 7.4925 7.7875 8.235 8 9 C7.34 9 6.68 9 6 9 C5.731875 8.195625 5.46375 7.39125 5.1875 6.5625 C4.795625 5.716875 4.40375 4.87125 4 4 C-0.07452913 2.64182362 -3.74413726 2.35901192 -8 3 C-11.2301177 4.8133497 -11.2301177 4.8133497 -13 8 C-13.87114944 12.19504973 -13.41106714 15.17786572 -11.5 19 C-11.005 19.66 -10.51 20.32 -10 21 C-10.99 21 -11.98 21 -13 21 C-15.34758985 18.13072352 -15.97849722 16.20069257 -16.375 12.5 C-15.844436 7.54806937 -13.81557562 4.17964635 -10 1 C-6.38069302 -0.20643566 -3.80768995 -0.32268559 0 0 Z " fill="#392F29" transform="translate(223,165)"/>
<path d="M0 0 C0.66 0.66 1.32 1.32 2 2 C3.98821313 2.39764263 5.98944339 2.73775349 8 3 C7.67 4.32 7.34 5.64 7 7 C5.68 7 4.36 7 3 7 C3.66 7.66 4.32 8.32 5 9 C4.625 11.125 4.625 11.125 4 13 C1.69 12.34 -0.62 11.68 -3 11 C-2.01 7.37 -1.02 3.74 0 0 Z " fill="#47392C" transform="translate(275,181)"/>
<path d="M0 0 C3 1 3 1 4.16796875 2.5390625 C7.71231148 9.79070624 8.01830323 17.05555169 7 25 C5.7163434 28.62444218 4.11298313 31.79279346 2 35 C1.34 35 0.68 35 0 35 C0.28875 34.29875 0.5775 33.5975 0.875 32.875 C4.27603435 24.18346776 5.87179462 15.20133697 3.1015625 6.0234375 C2.16582315 3.93295596 1.18778783 1.95666834 0 0 Z " fill="#43372B" transform="translate(282,162)"/>
<path d="M0 0 C2.5 0.25 2.5 0.25 4.5 2.25 C4.75 4.75 4.75 4.75 4.5 7.25 C2.5 9.25 2.5 9.25 0 9.5 C-2.5 9.25 -2.5 9.25 -4.5 7.25 C-4.75 4.75 -4.75 4.75 -4.5 2.25 C-2.5 0.25 -2.5 0.25 0 0 Z " fill="#191208" transform="translate(201.5,290.75)"/>
<path d="M0 0 C0.99 0 1.98 0 3 0 C3.08121924 1.60332791 3.13929134 3.20784026 3.1875 4.8125 C3.22230469 5.70582031 3.25710938 6.59914063 3.29296875 7.51953125 C3 10 3 10 1.65234375 11.83984375 C0 13 0 13 -2.625 12.75 C-5 12 -5 12 -6 11 C-6.07205511 9.31391034 -6.08386068 7.62499341 -6.0625 5.9375 C-6.05347656 5.01839844 -6.04445313 4.09929687 -6.03515625 3.15234375 C-6.02355469 2.44207031 -6.01195312 1.73179687 -6 1 C-5.34 1 -4.68 1 -4 1 C-4 3.97 -4 6.94 -4 10 C-2.68 10 -1.36 10 0 10 C0 6.7 0 3.4 0 0 Z " fill="#22190B" transform="translate(279,268)"/>
<path d="M0 0 C1.32 0.33 2.64 0.66 4 1 C4.33 1.66 4.66 2.32 5 3 C5.33 2.01 5.66 1.02 6 0 C6.99 0 7.98 0 9 0 C9 2.97 9 5.94 9 9 C7.68 8.67 6.36 8.34 5 8 C4.67 7.34 4.34 6.68 4 6 C3.67 6.99 3.34 7.98 3 9 C2.01 9 1.02 9 0 9 C0 6.03 0 3.06 0 0 Z " fill="#352712" transform="translate(264,291)"/>
<path d="M0 0 C0.33 0.66 0.66 1.32 1 2 C-1.97 1.505 -1.97 1.505 -5 1 C-3.72375881 4.63473078 -3.72375881 4.63473078 -1.375 7.625 C-0.92125 8.07875 -0.4675 8.5325 0 9 C0 9.99 0 10.98 0 12 C-0.66 12 -1.32 12 -2 12 C-2.33 11.01 -2.66 10.02 -3 9 C-4.32 9 -5.64 9 -7 9 C-7 8.01 -7 7.02 -7 6 C-9.475 5.01 -9.475 5.01 -12 4 C-12 3.34 -12 2.68 -12 2 C-4.4494382 -1.70125578 -4.4494382 -1.70125578 0 0 Z " fill="#564229" transform="translate(267,168)"/>
<path d="M0 0 C0.66 0.33 1.32 0.66 2 1 C1.505 1.886875 1.01 2.77375 0.5 3.6875 C-0.95899023 6.90943677 -1.55950762 8.549703 -1 12 C0.87860833 14.5048111 1.96101874 14.98700625 5 16 C5 17.32 5 18.64 5 20 C0.58167506 18.64995627 -1.64842388 17.00638894 -4 13 C-4.55781984 10.21653535 -4.58298247 7.78037792 -4 5 C-2 2 -2 2 0 0 Z " fill="#EEB155" transform="translate(213,168)"/>
<path d="M0 0 C2.625 0.9375 2.625 0.9375 5 2 C5 2.66 5 3.32 5 4 C6.32 4.33 7.64 4.66 9 5 C8.01 5.33 7.02 5.66 6 6 C5.67 6.66 5.34 7.32 5 8 C0.52459016 9.26229508 0.52459016 9.26229508 -2 8 C-3.09036928 5.0262656 -3.03864166 4.11592499 -2 1 C-1.34 0.67 -0.68 0.34 0 0 Z " fill="#795929" transform="translate(239,115)"/>
<path d="M0 0 C0.33 0 0.66 0 1 0 C1 1.65 1 3.3 1 5 C2.65 4.01 4.3 3.02 6 2 C5.5359375 2.7425 5.5359375 2.7425 5.0625 3.5 C4.02826929 5.93348403 3.81858728 7.5280974 3.625 10.125 C3.41875 11.40375 3.2125 12.6825 3 14 C0.9609375 15.2421875 0.9609375 15.2421875 -1 16 C-1.22384382 14.27277272 -1.42839969 12.54303993 -1.625 10.8125 C-1.74101562 9.84957031 -1.85703125 8.88664062 -1.9765625 7.89453125 C-2.00194942 4.75924677 -1.34359283 2.80513465 0 0 Z " fill="#AA7E3B" transform="translate(252,118)"/>
<path d="M0 0 C0.495 0.391875 0.99 0.78375 1.5 1.1875 C1.5 1.8475 1.5 2.5075 1.5 3.1875 C-0.07725347 3.88883599 -1.66211333 4.573083 -3.25 5.25 C-4.13171875 5.63285156 -5.0134375 6.01570312 -5.921875 6.41015625 C-8.65256309 7.23350008 -9.86901347 7.1648992 -12.5 6.1875 C-12 4.375 -12 4.375 -10.5 2.1875 C-7.00597239 0.20960331 -3.91429902 -1.27214718 0 0 Z " fill="#93703F" transform="translate(237.5,208.8125)"/>
<path d="M0 0 C0.99 0.33 1.98 0.66 3 1 C3 2.65 3 4.3 3 6 C4.98 6 6.96 6 9 6 C9.33 4.68 9.66 3.36 10 2 C11.1577506 5.47325181 11.06866652 8.36067448 11 12 C10.67 10.68 10.34 9.36 10 8 C7.69 8 5.38 8 3 8 C3 9.32 3 10.64 3 12 C4.65 12 6.3 12 8 12 C8 12.66 8 13.32 8 14 C6.02 14.33 4.04 14.66 2 15 C1.93941406 14.33613281 1.87882812 13.67226562 1.81640625 12.98828125 C1.20136493 6.45091919 1.20136493 6.45091919 0 0 Z " fill="#1D1C22" transform="translate(274,169)"/>
<path d="M0 0 C0.99 0 1.98 0 3 0 C3.66 0.99 4.32 1.98 5 3 C5.33 2.01 5.66 1.02 6 0 C6.66 0 7.32 0 8 0 C8 2.97 8 5.94 8 9 C4 7 4 7 3 5 C2.67 6.32 2.34 7.64 2 9 C1.34 9 0.68 9 0 9 C0 6.03 0 3.06 0 0 Z " fill="#110D06" transform="translate(209,291)"/>
<path d="M0 0 C1.4540625 0.0309375 1.4540625 0.0309375 2.9375 0.0625 C3.2675 1.0525 3.5975 2.0425 3.9375 3.0625 C0.9675 2.5675 0.9675 2.5675 -2.0625 2.0625 C-1.79573796 4.04741642 -1.79573796 4.04741642 -1.0625 6.0625 C-0.0725 6.3925 0.9175 6.7225 1.9375 7.0625 C1.9375 6.4025 1.9375 5.7425 1.9375 5.0625 C1.2775 4.7325 0.6175 4.4025 -0.0625 4.0625 C1.2575 4.0625 2.5775 4.0625 3.9375 4.0625 C3.9375 5.3825 3.9375 6.7025 3.9375 8.0625 C1.0625 8.6875 1.0625 8.6875 -2.0625 9.0625 C-4.0625 7.0625 -4.0625 7.0625 -4.25 4 C-3.9998913 0.08163043 -3.9998913 0.08163043 0 0 Z " fill="#100C05" transform="translate(280.0625,290.9375)"/>
<path d="M0 0 C1.4540625 0.0309375 1.4540625 0.0309375 2.9375 0.0625 C3.2675 1.0525 3.5975 2.0425 3.9375 3.0625 C0.9675 2.5675 0.9675 2.5675 -2.0625 2.0625 C-2.0625 3.7125 -2.0625 5.3625 -2.0625 7.0625 C-0.0825 6.7325 1.8975 6.4025 3.9375 6.0625 C2.9475 7.5475 2.9475 7.5475 1.9375 9.0625 C-0.5625 9.4375 -0.5625 9.4375 -3.0625 9.0625 C-5.0625 6.0625 -5.0625 6.0625 -4.75 3.4375 C-3.74055958 -0.0496578 -3.77085022 0.07695613 0 0 Z " fill="#271D0D" transform="translate(190.0625,290.9375)"/>
<path d="M0 0 C1.5 1.0625 1.5 1.0625 3 3 C3.58562723 8.17304053 2.94117313 11.68627941 0 16 C-3.1875 17.875 -3.1875 17.875 -6 19 C-6.99 18.34 -7.98 17.68 -9 17 C-6.36 16.34 -3.72 15.68 -1 15 C-0.32198966 12.09926819 -0.32198966 12.09926819 0 9 C-0.66 8.34 -1.32 7.68 -2 7 C-1.01 6.67 -0.02 6.34 1 6 C0.67 4.02 0.34 2.04 0 0 Z " fill="#423528" transform="translate(270,172)"/>
<path d="M0 0 C1.98 0 3.96 0 6 0 C6.625 1.875 6.625 1.875 7 4 C6.34 4.66 5.68 5.32 5 6 C4.01 6 3.02 6 2 6 C2 6.99 2 7.98 2 9 C1.34 9 0.68 9 0 9 C0 6.03 0 3.06 0 0 Z " fill="#413017" transform="translate(308,291)"/>
<path d="M0 0 C1.2065625 0.0309375 1.2065625 0.0309375 2.4375 0.0625 C2.81883299 2.0539056 3.15075582 4.05529077 3.4375 6.0625 C2.4375 7.0625 2.4375 7.0625 -0.0625 7.1875 C-2.5625 7.0625 -2.5625 7.0625 -3.5625 6.0625 C-3.6875 3.5625 -3.6875 3.5625 -3.5625 1.0625 C-2.5625 0.0625 -2.5625 0.0625 0 0 Z " fill="#F5B555" transform="translate(235.5625,270.9375)"/>
<path d="M0 0 C0.99 0.33 1.98 0.66 3 1 C3 1.99 3 2.98 3 4 C-3.5 8 -3.5 8 -8 8 C-8 6.68 -8 5.36 -8 4 C-6.576875 3.566875 -6.576875 3.566875 -5.125 3.125 C-1.94788422 2.23174891 -1.94788422 2.23174891 0 0 Z " fill="#E9AD53" transform="translate(228,185)"/>
<path d="M0 0 C1.65 0 3.3 0 5 0 C5 2 5 4 5 6 C2.08517222 6.80967438 0.53886783 7.21845993 -2.3125 6.0625 C-2.869375 5.711875 -3.42625 5.36125 -4 5 C-3.67 4.34 -3.34 3.68 -3 3 C-2.34 3 -1.68 3 -1 3 C-0.67 2.01 -0.34 1.02 0 0 Z " fill="#9C7436" transform="translate(242,107)"/>
<path d="M0 0 C0.66 0 1.32 0 2 0 C2.33 3.3 2.66 6.6 3 10 C0 6 0 6 -1 4 C-1.680625 4.639375 -2.36125 5.27875 -3.0625 5.9375 C-6.46408839 8.3258493 -8.90433701 8.67877153 -13 9 C-11.25961328 7.83974219 -9.51805053 6.68123693 -7.7734375 5.52734375 C-6.98195312 5.00269531 -6.19046875 4.47804687 -5.375 3.9375 C-4.57835937 3.41027344 -3.78171875 2.88304687 -2.9609375 2.33984375 C-1.08527994 1.1469201 -1.08527994 1.1469201 0 0 Z " fill="#2A2525" transform="translate(234,185)"/>
<path d="M0 0 C2.31 0 4.62 0 7 0 C7.66 1.32 8.32 2.64 9 4 C6 6 6 6 3 6 C3 4.68 3 3.36 3 2 C2.34 1.67 1.68 1.34 1 1 C1 4.96 1 8.92 1 13 C0.67 13 0.34 13 0 13 C0 8.71 0 4.42 0 0 Z " fill="#59421F" transform="translate(218,268)"/>
<path d="M0 0 C0.66 0 1.32 0 2 0 C2 2.31 2 4.62 2 7 C2.99 7 3.98 7 5 7 C5 4.69 5 2.38 5 0 C5.66 0 6.32 0 7 0 C7.09765625 6.15234375 7.09765625 6.15234375 7 8 C6 9 6 9 3.5 9.125 C1 9 1 9 0 8 C-0.14115161 5.32941149 -0.04247107 2.67567762 0 0 Z " fill="#0D0A04" transform="translate(231,291)"/>
<path d="M0 0 C0 3 0 3 -1 6 C-1.09398229 7.81054127 -1.12991987 9.62452781 -1.125 11.4375 C-1.12757813 12.38496094 -1.13015625 13.33242187 -1.1328125 14.30859375 C-1.01473475 16.70140459 -0.68112635 18.71336153 0 21 C-0.66 21 -1.32 21 -2 21 C-4.41529114 15.66703716 -4.74569922 10.78350444 -4 5 C-2 1.8125 -2 1.8125 0 0 Z " fill="#42362B" transform="translate(206,166)"/>
<path d="M0 0 C0 3.3 0 6.6 0 10 C-1.32 9.67 -2.64 9.34 -4 9 C-4.6875 6.1875 -4.6875 6.1875 -5 3 C-3.41464922 0.73521317 -2.79754986 0 0 0 Z " fill="#EAAE53" transform="translate(218,172)"/>
<path d="M0 0 C0.99 0.33 1.98 0.66 3 1 C3.33 1.99 3.66 2.98 4 4 C3.34 4 2.68 4 2 4 C2 3.34 2 2.68 2 2 C1.34 2 0.68 2 0 2 C0.2475 2.5775 0.495 3.155 0.75 3.75 C1 6 1 6 -0.6875 8.25 C-3 10 -3 10 -7 10 C-6.1875 7.0625 -6.1875 7.0625 -5 4 C-4.01 3.67 -3.02 3.34 -2 3 C-1.34 2.01 -0.68 1.02 0 0 Z " fill="#8A662F" transform="translate(244,100)"/>
<path d="M0 0 C0.86625 0.3403125 0.86625 0.3403125 1.75 0.6875 C1.75 2.6675 1.75 4.6475 1.75 6.6875 C1.09 6.6875 0.43 6.6875 -0.25 6.6875 C-0.25 5.0375 -0.25 3.3875 -0.25 1.6875 C-2.3495533 2.84434329 -2.3495533 2.84434329 -4.25 4.6875 C-4.58425735 7.31375139 -4.58425735 7.31375139 -4.25 9.6875 C-5.24 9.6875 -6.23 9.6875 -7.25 9.6875 C-6.76454933 3.25527857 -6.76454933 3.25527857 -4.4375 0.6875 C-2.25 -0.3125 -2.25 -0.3125 0 0 Z " fill="#493B2D" transform="translate(218.25,170.3125)"/>
<path d="M0 0 C1.65 0 3.3 0 5 0 C5.33 0.66 5.66 1.32 6 2 C5.01 2.33 4.02 2.66 3 3 C3.99 3.33 4.98 3.66 6 4 C5.67 5.65 5.34 7.3 5 9 C3.35 8.67 1.7 8.34 0 8 C0 7.34 0 6.68 0 6 C0.99 6 1.98 6 3 6 C2.01 5.34 1.02 4.68 0 4 C0 2.68 0 1.36 0 0 Z " fill="#191208" transform="translate(221,291)"/>
<path d="M0 0 C3.65362673 1.86128154 5.53176912 3.06353823 7.375 6.75 C7.58125 7.4925 7.7875 8.235 8 9 C7.34 9 6.68 9 6 9 C5.731875 8.195625 5.46375 7.39125 5.1875 6.5625 C4.795625 5.716875 4.40375 4.87125 4 4 C0.98509443 2.99503148 -1.04181692 2.89664697 -4.1875 2.9375 C-5.08855469 2.94652344 -5.98960937 2.95554688 -6.91796875 2.96484375 C-7.94857422 2.98224609 -7.94857422 2.98224609 -9 3 C-9.33 2.34 -9.66 1.68 -10 1 C-6.38069302 -0.20643566 -3.80768995 -0.32268559 0 0 Z " fill="#45382C" transform="translate(223,165)"/>
<path d="M0 0 C2.31 0 4.62 0 7 0 C7 0.66 7 1.32 7 2 C6.34 2 5.68 2 5 2 C5 4.31 5 6.62 5 9 C4.01 9 3.02 9 2 9 C2 6.69 2 4.38 2 2 C1.34 2 0.68 2 0 2 C0 1.34 0 0.68 0 0 Z " fill="#372913" transform="translate(249,291)"/>
<path d="M0 0 C3.65316671 1.24976756 4.78065836 1.67098753 7 5 C2.25 8 2.25 8 0 8 C0 5.36 0 2.72 0 0 Z " fill="#F7B757" transform="translate(220,180)"/>
<path d="M0 0 C1.32 0.33 2.64 0.66 4 1 C4 1.66 4 2.32 4 3 C5.65 2.67 7.3 2.34 9 2 C7.02 4.31 5.04 6.62 3 9 C0.23776722 6.23776722 0.42143709 3.79293383 0 0 Z " fill="#372913" transform="translate(200,159)"/>
<path d="M0 0 C0.66 0 1.32 0 2 0 C2 3.3 2 6.6 2 10 C3.32 10 4.64 10 6 10 C6 10.66 6 11.32 6 12 C4.02 12 2.04 12 0 12 C0 8.04 0 4.08 0 0 Z " fill="#000000" transform="translate(264,269)"/>
<path d="M0 0 C3.27034459 -0.36337162 4.60883753 -0.28544288 7.3125 1.6875 C9.28544288 4.39116247 9.36337162 5.72965541 9 9 C8.01 9 7.02 9 6 9 C5.67 7.02 5.34 5.04 5 3 C4.360625 2.87625 3.72125 2.7525 3.0625 2.625 C2.381875 2.41875 1.70125 2.2125 1 2 C0.67 1.34 0.34 0.68 0 0 Z " fill="#261C0D" transform="translate(233,268)"/>
<path d="M0 0 C-2.35953094 2.35953094 -3.77895617 2.49141413 -7 3 C-7 3.66 -7 4.32 -7 5 C-6.01 5.33 -5.02 5.66 -4 6 C-4.66 6.66 -5.32 7.32 -6 8 C-8.31 7.34 -10.62 6.68 -13 6 C-12.01 5.67 -11.02 5.34 -10 5 C-10 4.34 -10 3.68 -10 3 C-6.58168085 0.4606772 -4.24223102 -0.3636198 0 0 Z " fill="#43362B" transform="translate(262,167)"/>
<path d="M0 0 C0.99 0 1.98 0 3 0 C3 2.31 3 4.62 3 7 C3.66 7 4.32 7 5 7 C5 7.66 5 8.32 5 9 C3.35 9 1.7 9 0 9 C0 6.03 0 3.06 0 0 Z " fill="#372913" transform="translate(241,291)"/>
<path d="M0 0 C8.58 0 17.16 0 26 0 C26.33 0.99 26.66 1.98 27 3 C26.01 3 25.02 3 24 3 C24 2.67 24 2.34 24 2 C16.08 1.67 8.16 1.34 0 1 C0 0.67 0 0.34 0 0 Z " fill="#4F402E" transform="translate(194,213)"/>
<path d="M0 0 C0.33 0.99 0.66 1.98 1 3 C-3.58921384 6.15654048 -7.29370646 8.57202798 -13 9 C-13 8.34 -13 7.68 -13 7 C-12.31292969 6.74605469 -11.62585938 6.49210938 -10.91796875 6.23046875 C-10.01691406 5.88628906 -9.11585938 5.54210937 -8.1875 5.1875 C-7.29417969 4.85105469 -6.40085938 4.51460937 -5.48046875 4.16796875 C-3.08075928 3.03802681 -1.71576647 1.98937707 0 0 Z " fill="#E2A852" transform="translate(233,188)"/>
<path d="M0 0 C0.66 0.33 1.32 0.66 2 1 C1.50769231 7.4 1.50769231 7.4 -1.0625 10.4375 C-2.0215625 11.2109375 -2.0215625 11.2109375 -3 12 C-3 8.98509443 -2.48047265 7.13135886 -1.5 4.3125 C-1.2215625 3.50425781 -0.943125 2.69601563 -0.65625 1.86328125 C-0.4396875 1.24839844 -0.223125 0.63351563 0 0 Z " fill="#EAAE54" transform="translate(284,184)"/>
<path d="M0 0 C-0.78375 0.61875 -1.5675 1.2375 -2.375 1.875 C-4.96837647 3.89858661 -4.96837647 3.89858661 -7 6 C-9.125 5.625 -9.125 5.625 -11 5 C-9.68 4.67 -8.36 4.34 -7 4 C-6.8453125 3.0409375 -6.8453125 3.0409375 -6.6875 2.0625 C-6.460625 1.381875 -6.23375 0.70125 -6 0 C-3 -1 -3 -1 0 0 Z " fill="#6E5126" transform="translate(217,155)"/>
<path d="M0 0 C0.66 0 1.32 0 2 0 C2 2.97 2 5.94 2 9 C0.68 8.67 -0.64 8.34 -2 8 C-2 7.01 -2 6.02 -2 5 C-1.34 5 -0.68 5 0 5 C0 3.35 0 1.7 0 0 Z " fill="#2C200F" transform="translate(271,291)"/>
<path d="M0 0 C0.33 1.65 0.66 3.3 1 5 C-0.98 5 -2.96 5 -5 5 C-5.33 4.01 -5.66 3.02 -6 2 C-2.25 0 -2.25 0 0 0 Z " fill="#E3A952" transform="translate(282,170)"/>
<path d="M0 0 C2.31 0 4.62 0 7 0 C7 1.65 7 3.3 7 5 C6.67 4.01 6.34 3.02 6 2 C5.01 2.495 5.01 2.495 4 3 C4 3.66 4 4.32 4 5 C2.68 4.67 1.36 4.34 0 4 C0 2.68 0 1.36 0 0 Z " fill="#C89445" transform="translate(278,293)"/>
<path d="M0 0 C0.66 0 1.32 0 2 0 C2 2.31 2 4.62 2 7 C2.99 7 3.98 7 5 7 C5 7.66 5 8.32 5 9 C3.35 9 1.7 9 0 9 C0 6.03 0 3.06 0 0 Z " fill="#0F0B05" transform="translate(300,291)"/>
<path d="M0 0 C0.66 0 1.32 0 2 0 C2 2.31 2 4.62 2 7 C2.99 7 3.98 7 5 7 C5 7.66 5 8.32 5 9 C3.35 9 1.7 9 0 9 C0 6.03 0 3.06 0 0 Z " fill="#0F0B05" transform="translate(292,291)"/>
<path d="M0 0 C1.98 0 3.96 0 6 0 C6 1.32 6 2.64 6 4 C4.02 4 2.04 4 0 4 C0 2.68 0 1.36 0 0 Z " fill="#DCA450" transform="translate(277,177)"/>
<path d="M0 0 C2.475 0.495 2.475 0.495 5 1 C5.33 2.32 5.66 3.64 6 5 C4.68 5.33 3.36 5.66 2 6 C1.34 4.02 0.68 2.04 0 0 Z " fill="#4F3A1B" transform="translate(197,152)"/>
<path d="M0 0 C0.78375 0.04125 1.5675 0.0825 2.375 0.125 C1.055 1.115 -0.265 2.105 -1.625 3.125 C-1.295 4.775 -0.965 6.425 -0.625 8.125 C-1.945 7.795 -3.265 7.465 -4.625 7.125 C-4.75 4.75 -4.75 4.75 -4.625 2.125 C-2.625 0.125 -2.625 0.125 0 0 Z " fill="#0F0B05" transform="translate(201.625,290.875)"/>
<path d="M0 0 C2.97 0.495 2.97 0.495 6 1 C5.67 2.32 5.34 3.64 5 5 C3.35 4.67 1.7 4.34 0 4 C0 2.68 0 1.36 0 0 Z " fill="#EDB054" transform="translate(277,183)"/>
<path d="M0 0 C3 1 3 1 4.75 3.9375 C5.1625 4.948125 5.575 5.95875 6 7 C5 9 5 9 3 10 C2.01 6.7 1.02 3.4 0 0 Z " fill="#DEA551" transform="translate(281,164)"/>
<path d="M0 0 C0.66 0 1.32 0 2 0 C2 2.97 2 5.94 2 9 C1.01 8.67 0.02 8.34 -1 8 C-0.67 5.36 -0.34 2.72 0 0 Z " fill="#090703" transform="translate(215,291)"/>
<path d="M0 0 C1.98 0.495 1.98 0.495 4 1 C3.67 2.32 3.34 3.64 3 5 C1.68 4.67 0.36 4.34 -1 4 C-0.67 2.68 -0.34 1.36 0 0 Z " fill="#EBAE52" transform="translate(200,293)"/>
<path d="M0 0 C1.4540625 0.0309375 1.4540625 0.0309375 2.9375 0.0625 C3.2675 1.0525 3.5975 2.0425 3.9375 3.0625 C0.9675 2.5675 0.9675 2.5675 -2.0625 2.0625 C-2.3925 3.3825 -2.7225 4.7025 -3.0625 6.0625 C-3.44468767 4.40635343 -3.77645102 2.73792976 -4.0625 1.0625 C-3.0625 0.0625 -3.0625 0.0625 0 0 Z " fill="#22190C" transform="translate(280.0625,290.9375)"/>
<path d="M0 0 C1.65 0.33 3.3 0.66 5 1 C4.67 2.32 4.34 3.64 4 5 C2.68 4.34 1.36 3.68 0 3 C0 2.01 0 1.02 0 0 Z " fill="#EEB155" transform="translate(275,189)"/>
<path d="M0 0 C0.33 0.99 0.66 1.98 1 3 C-0.98 3.66 -2.96 4.32 -5 5 C-5.33 4.01 -5.66 3.02 -6 2 C-3 0 -3 0 0 0 Z " fill="#EAAE54" transform="translate(280,165)"/>
<path d="M0 0 C1.32 0.33 2.64 0.66 4 1 C3.67 2.98 3.34 4.96 3 7 C2.34 7 1.68 7 1 7 C0.67 4.69 0.34 2.38 0 0 Z " fill="#F7B756" transform="translate(261,176)"/>
<path d="M0 0 C2.4375 1.1875 2.4375 1.1875 5 3 C5.8125 5.6875 5.8125 5.6875 6 8 C5.34 8 4.68 8 4 8 C3.67 7.01 3.34 6.02 3 5 C1.68 5 0.36 5 -1 5 C-0.67 3.35 -0.34 1.7 0 0 Z " fill="#A27839" transform="translate(261,172)"/>
<path d="M0 0 C0.33 0.99 0.66 1.98 1 3 C1.99 3 2.98 3 4 3 C4 3.66 4 4.32 4 5 C2.35 5.33 0.7 5.66 -1 6 C-1.625 4.125 -1.625 4.125 -2 2 C-1.34 1.34 -0.68 0.68 0 0 Z " fill="#A37938" transform="translate(240,118)"/>
<path d="M0 0 C0.33 0 0.66 0 1 0 C1 3.63 1 7.26 1 11 C0.01 11.33 -0.98 11.66 -2 12 C-2 11.34 -2 10.68 -2 10 C-2.66 9.67 -3.32 9.34 -4 9 C-3.01 8.67 -2.02 8.34 -1 8 C-0.67 5.36 -0.34 2.72 0 0 Z " fill="#161007" transform="translate(280,269)"/>
<path d="M0 0 C0.66 0 1.32 0 2 0 C2.33 2.64 2.66 5.28 3 8 C2.01 8 1.02 8 0 8 C0 5.36 0 2.72 0 0 Z " fill="#1B1409" transform="translate(231,291)"/>
<path d="M0 0 C2 1 2 1 2.6875 2.8125 C3.02688538 5.18819767 2.72856341 6.73335829 2 9 C1.34 9 0.68 9 0 9 C0 6.03 0 3.06 0 0 Z " fill="#0A0703" transform="translate(308,291)"/>
<path d="M0 0 C-1 3 -1 3 -2.75 4.1875 C-5.29960574 5.10819096 -7.30923081 5.14948718 -10 5 C-2.5 0 -2.5 0 0 0 Z " fill="#382E28" transform="translate(231,189)"/>
<path d="M0 0 C2.475 0.99 2.475 0.99 5 2 C4.13375 2.1546875 4.13375 2.1546875 3.25 2.3125 C0.67950842 3.09792798 -0.93657284 4.30504197 -3 6 C-3.66 5.34 -4.32 4.68 -5 4 C-4.360625 3.71125 -3.72125 3.4225 -3.0625 3.125 C-0.84793921 2.17176549 -0.84793921 2.17176549 0 0 Z " fill="#2E2726" transform="translate(227,183)"/>
<path d="M0 0 C0 1.65 0 3.3 0 5 C-2.475 4.01 -2.475 4.01 -5 3 C-5 2.34 -5 1.68 -5 1 C-3 0 -3 0 0 0 Z " fill="#E8AC52" transform="translate(260,169)"/>
<path d="M0 0 C-0.33 0.99 -0.66 1.98 -1 3 C-2.98 3.33 -4.96 3.66 -7 4 C-7 3.34 -7 2.68 -7 2 C-4.35261084 0.5393715 -3.10551666 0 0 0 Z " fill="#120D06" transform="translate(241,277)"/>
<path d="M0 0 C0.66 0.33 1.32 0.66 2 1 C1.01 2.98 0.02 4.96 -1 7 C-1.99 7 -2.98 7 -4 7 C-2.92598892 4.08482708 -2.22189824 2.22189824 0 0 Z " fill="#E5AA52" transform="translate(213,168)"/>
<path d="M0 0 C0.66 0.33 1.32 0.66 2 1 C1.1875 2.9375 1.1875 2.9375 0 5 C-0.99 5.33 -1.98 5.66 -3 6 C-3.66 6.66 -4.32 7.32 -5 8 C-4.45773019 4.20411134 -2.79872437 2.52788007 0 0 Z " fill="#916E3C" transform="translate(208,162)"/>
</svg>
