<svg xmlns="http://www.w3.org/2000/svg" xmlns:xlink="http://www.w3.org/1999/xlink" width="500" zoomAndPan="magnify" viewBox="0 0 375 374.999991" height="500" preserveAspectRatio="xMidYMid meet" version="1.0"><defs><g/><clipPath id="38beb40503"><path d="M 7 7 L 368 7 L 368 368 L 7 368 Z M 7 7 " clip-rule="nonzero"/></clipPath><clipPath id="f4bc4ab55f"><path d="M 187.496094 -67.558594 L 442.558594 187.5 L 187.496094 442.5625 L -67.566406 187.5 Z M 187.496094 -67.558594 " clip-rule="nonzero"/></clipPath><clipPath id="bfcb6beae0"><path d="M 315.027344 59.972656 C 244.59375 -10.460938 130.398438 -10.460938 59.964844 59.972656 C -10.46875 130.402344 -10.46875 244.597656 59.964844 315.03125 C 130.398438 385.464844 244.59375 385.464844 315.027344 315.03125 C 385.460938 244.597656 385.460938 130.402344 315.027344 59.972656 Z M 315.027344 59.972656 " clip-rule="nonzero"/></clipPath><clipPath id="28f7f73493"><path d="M 91.667969 76.355469 L 283.667969 76.355469 L 283.667969 196 L 91.667969 196 Z M 91.667969 76.355469 " clip-rule="nonzero"/></clipPath><clipPath id="10944f2dc7"><path d="M 130 171 L 239 171 L 239 248.855469 L 130 248.855469 Z M 130 171 " clip-rule="nonzero"/></clipPath><clipPath id="c94899551d"><path d="M 166.007812 38 L 179 38 L 179 51 L 166.007812 51 Z M 166.007812 38 " clip-rule="nonzero"/></clipPath><clipPath id="d500d1dbbb"><path d="M 166.007812 37 L 180 37 L 180 52 L 166.007812 52 Z M 166.007812 37 " clip-rule="nonzero"/></clipPath><clipPath id="9f766e2318"><path d="M 187 53 L 194 53 L 194 69.597656 L 187 69.597656 Z M 187 53 " clip-rule="nonzero"/></clipPath><clipPath id="6038ed93c8"><path d="M 186 52 L 195 52 L 195 69.597656 L 186 69.597656 Z M 186 52 " clip-rule="nonzero"/></clipPath><clipPath id="141a55aead"><path d="M 105.324219 91.171875 L 142.074219 91.171875 L 142.074219 118.171875 L 105.324219 118.171875 Z M 105.324219 91.171875 " clip-rule="nonzero"/></clipPath></defs><rect x="-37.5" width="450" fill="#ffffff" y="-37.499999" height="449.999989" fill-opacity="1"/><rect x="-37.5" width="450" fill="#ffffff" y="-37.499999" height="449.999989" fill-opacity="1"/><g clip-path="url(#38beb40503)"><g clip-path="url(#f4bc4ab55f)"><g clip-path="url(#bfcb6beae0)"><path fill="#545454" d="M 187.496094 -67.558594 L 442.558594 187.5 L 187.496094 442.5625 L -67.566406 187.5 Z M 187.496094 -67.558594 " fill-opacity="1" fill-rule="nonzero"/></g></g></g><path fill="#d9d9d9" d="M 282.019531 193.933594 L 92.972656 193.933594 L 92.972656 77.636719 L 282.019531 77.636719 L 282.019531 193.933594 " fill-opacity="1" fill-rule="nonzero"/><g clip-path="url(#28f7f73493)"><path stroke-linecap="round" transform="matrix(0.0854807, 0, 0, -0.0854807, 5.764714, 344.338717)" fill="none" stroke-linejoin="round" d="M 3231.781343 1759.522156 L 1020.206649 1759.522156 L 1020.206649 3120.027193 L 3231.781343 3120.027193 Z M 3231.781343 1759.522156 " stroke="#181821" stroke-width="30" stroke-opacity="1" stroke-miterlimit="10"/></g><path stroke-linecap="round" transform="matrix(0.0854807, 0, 0, -0.0854807, 5.764714, 344.338717)" fill="none" stroke-linejoin="round" d="M 3123.615434 1837.573433 L 1128.418255 1837.573433 L 1128.418255 3041.930219 L 3123.615434 3041.930219 Z M 3123.615434 1837.573433 " stroke="#181821" stroke-width="30" stroke-opacity="1" stroke-miterlimit="10"/><path stroke-linecap="round" transform="matrix(0.0854807, 0, 0, -0.0854807, 5.764714, 344.338717)" fill="none" stroke-linejoin="round" d="M 1734.549479 2730.319181 C 1618.797791 2802.018509 1464.934414 2787.760899 1364.445681 2687.317863 C 1264.002645 2586.829129 1249.745034 2432.965752 1321.398665 2317.214064 " stroke="#181821" stroke-width="30" stroke-opacity="1" stroke-miterlimit="10"/><path stroke-linecap="round" transform="matrix(0.0854807, 0, 0, -0.0854807, 5.764714, 344.338717)" fill="none" stroke-linejoin="round" d="M 1406.258865 2228.058303 C 1523.198687 2147.128086 1684.784936 2158.643848 1788.929467 2262.788379 C 1893.073998 2366.978607 1904.635458 2528.564856 1823.705241 2645.504679 " stroke="#181821" stroke-width="30" stroke-opacity="1" stroke-miterlimit="10"/><path stroke-linecap="round" transform="matrix(0.0854807, 0, 0, -0.0854807, 5.764714, 344.338717)" fill="none" stroke-linejoin="round" d="M 1782.577519 2475.053121 C 1782.577519 2361.357819 1690.360027 2269.186024 1576.75612 2269.186024 C 1463.060818 2269.186024 1370.843326 2361.357819 1370.843326 2475.053121 C 1370.843326 2588.748423 1463.060818 2680.920217 1576.75612 2680.920217 C 1690.360027 2680.920217 1782.577519 2588.748423 1782.577519 2475.053121 Z M 1782.577519 2475.053121 " stroke="#181821" stroke-width="30" stroke-opacity="1" stroke-miterlimit="10"/><path stroke-linecap="round" transform="matrix(0.0854807, 0, 0, -0.0854807, 5.764714, 344.338717)" fill="none" stroke-linejoin="round" d="M 1565.011871 2585.046928 C 1562.224325 2585.275415 1559.391082 2585.412507 1556.466444 2585.412507 C 1495.551718 2585.412507 1446.152755 2535.967846 1446.152755 2475.053121 C 1446.152755 2414.092697 1495.551718 2364.648036 1556.466444 2364.648036 C 1559.391082 2364.648036 1562.224325 2364.830826 1565.011871 2365.059314 Z M 1565.011871 2585.046928 " stroke="#181821" stroke-width="30" stroke-opacity="1" stroke-miterlimit="10"/><path stroke-linecap="round" transform="matrix(0.0854807, 0, 0, -0.0854807, 5.764714, 344.338717)" fill="none" stroke-linejoin="round" d="M 1565.011871 2475.053121 L 1565.011871 2104.355255 C 1565.011871 2104.355255 1764.938296 2112.580799 1876.851397 2269.186024 Z M 1565.011871 2475.053121 " stroke="#181821" stroke-width="30" stroke-opacity="1" stroke-miterlimit="10"/><path stroke-linecap="round" transform="matrix(0.0854807, 0, 0, -0.0854807, 5.764714, 344.338717)" fill="none" stroke-linejoin="round" d="M 2603.166964 2400.886129 C 2606.594274 2428.350308 2606.594274 2456.042974 2603.166964 2483.507152 C 2647.767693 2489.127941 2692.41412 2494.794427 2737.014849 2500.415216 C 2741.858781 2461.755157 2741.858781 2422.683822 2737.014849 2383.978066 C 2692.41412 2389.598854 2647.767693 2395.219643 2603.166964 2400.886129 Z M 2603.166964 2400.886129 " stroke="#181821" stroke-width="30" stroke-opacity="1" stroke-miterlimit="10"/><path stroke-linecap="round" transform="matrix(0.0854807, 0, 0, -0.0854807, 5.764714, 344.338717)" fill="none" stroke-linejoin="round" d="M 2581.597758 2310.313746 C 2591.742597 2335.995724 2598.688612 2362.911533 2602.207317 2390.375711 C 2646.808046 2384.709225 2691.408776 2378.951344 2736.055203 2373.330555 C 2731.119876 2334.716194 2721.386315 2296.787295 2706.991612 2260.549203 C 2665.178429 2277.137384 2623.365245 2293.771263 2581.597758 2310.313746 Z M 2581.597758 2310.313746 " stroke="#181821" stroke-width="30" stroke-opacity="1" stroke-miterlimit="10"/><path stroke-linecap="round" transform="matrix(0.0854807, 0, 0, -0.0854807, 5.764714, 344.338717)" fill="none" stroke-linejoin="round" d="M 2534.849248 2230.068991 C 2551.665917 2251.958079 2565.649342 2275.94925 2576.479642 2301.357042 C 2617.835851 2283.717819 2659.237758 2266.124294 2700.639664 2248.439374 C 2685.331012 2212.612558 2665.635403 2178.842129 2641.918417 2147.904943 C 2606.228694 2175.277726 2570.538971 2202.65051 2534.849248 2230.068991 Z M 2534.849248 2230.068991 " stroke="#181821" stroke-width="30" stroke-opacity="1" stroke-miterlimit="10"/><path stroke-linecap="round" transform="matrix(0.0854807, 0, 0, -0.0854807, 5.764714, 344.338717)" fill="none" stroke-linejoin="round" d="M 2534.849248 2652.359299 C 2551.665917 2630.378817 2565.649342 2606.433343 2576.479642 2581.025551 C 2617.835851 2598.619076 2659.237758 2616.303996 2700.639664 2633.897522 C 2685.331012 2669.724337 2665.635403 2703.540464 2641.918417 2734.47765 C 2606.228694 2707.059169 2570.538971 2679.732083 2534.849248 2652.359299 Z M 2534.849248 2652.359299 " stroke="#181821" stroke-width="30" stroke-opacity="1" stroke-miterlimit="10"/><path stroke-linecap="round" transform="matrix(0.0854807, 0, 0, -0.0854807, 5.764714, 344.338717)" fill="none" stroke-linejoin="round" d="M 2603.532543 2493.057923 C 2599.282679 2520.38501 2591.651202 2547.072331 2580.683809 2572.480124 C 2622.040018 2590.210742 2663.35053 2607.987057 2704.706739 2625.717675 C 2720.061089 2589.936557 2730.891389 2552.32754 2736.923454 2513.850272 C 2692.459817 2506.904256 2647.99618 2499.958241 2603.532543 2493.057923 Z M 2603.532543 2493.057923 " stroke="#181821" stroke-width="30" stroke-opacity="1" stroke-miterlimit="10"/><path stroke-linecap="round" transform="matrix(0.0854807, 0, 0, -0.0854807, 5.764714, 344.338717)" fill="none" stroke-linejoin="round" d="M 2715.080064 2743.982724 C 2823.337368 2592.084338 2815.568798 2471.397323 2816.345655 2442.196641 C 2821.875049 2246.931357 2715.080064 2135.566626 2715.080064 2135.566626 " stroke="#181821" stroke-width="30" stroke-opacity="1" stroke-miterlimit="10"/><path stroke-linecap="round" transform="matrix(0.0854807, 0, 0, -0.0854807, 5.764714, 344.338717)" fill="none" stroke-linejoin="round" d="M 2430.202045 2613.699241 C 2351.328214 2662.549835 2246.498221 2652.770576 2178.043413 2584.361466 C 2109.634302 2515.952355 2099.900741 2411.122362 2148.751335 2332.248531 " stroke="#181821" stroke-width="30" stroke-opacity="1" stroke-miterlimit="10"/><path stroke-linecap="round" transform="matrix(0.0854807, 0, 0, -0.0854807, 5.764714, 344.338717)" fill="none" stroke-linejoin="round" d="M 2206.512936 2271.470898 C 2286.209321 2216.359751 2396.340221 2224.219715 2467.262692 2295.142187 C 2538.185163 2366.156053 2546.045128 2476.241255 2490.888283 2555.891943 " stroke="#181821" stroke-width="30" stroke-opacity="1" stroke-miterlimit="10"/><path fill="#000000" d="M 204.308594 145.3125 L 202.089844 150.949219 L 206.523438 150.949219 Z M 204.308594 145.3125 " fill-opacity="1" fill-rule="nonzero"/><path fill="#000000" d="M 204.308594 126.257812 L 202.089844 120.621094 L 206.523438 120.621094 Z M 204.308594 126.257812 " fill-opacity="1" fill-rule="nonzero"/><path fill="#000000" d="M 194.777344 135.785156 L 189.144531 133.566406 L 189.144531 138.003906 Z M 194.777344 135.785156 " fill-opacity="1" fill-rule="nonzero"/><path fill="#000000" d="M 213.832031 135.785156 L 219.46875 133.566406 L 219.46875 138.003906 Z M 213.832031 135.785156 " fill-opacity="1" fill-rule="nonzero"/><path fill="#000000" d="M 203.773438 129.597656 L 203.527344 126.742188 C 203.972656 126.707031 204.421875 126.703125 204.859375 126.726562 L 204.6875 129.589844 C 204.386719 129.570312 204.078125 129.574219 203.773438 129.597656 Z M 206.675781 130.046875 C 206.398438 129.929688 206.105469 129.835938 205.8125 129.757812 L 206.503906 126.980469 C 206.933594 127.085938 207.363281 127.226562 207.769531 127.398438 Z M 201.796875 130.105469 L 200.636719 127.484375 C 201.042969 127.304688 201.460938 127.152344 201.894531 127.035156 L 202.652344 129.796875 C 202.359375 129.878906 202.074219 129.980469 201.796875 130.105469 Z M 208.410156 131.128906 C 208.183594 130.921875 207.941406 130.738281 207.683594 130.574219 L 209.242188 128.171875 C 209.617188 128.414062 209.972656 128.6875 210.304688 128.976562 Z M 200.089844 131.226562 L 198.144531 129.128906 C 198.46875 128.824219 198.820312 128.546875 199.179688 128.296875 L 200.800781 130.660156 C 200.554688 130.828125 200.3125 131.023438 200.089844 131.226562 Z M 209.699219 132.710938 C 209.550781 132.445312 209.382812 132.191406 209.191406 131.953125 L 211.449219 130.1875 C 211.71875 130.53125 211.96875 130.902344 212.191406 131.289062 Z M 198.835938 132.84375 L 196.316406 131.480469 C 196.523438 131.09375 196.765625 130.714844 197.03125 130.363281 L 199.324219 132.074219 C 199.144531 132.320312 198.980469 132.578125 198.835938 132.84375 Z M 210.40625 134.625 C 210.351562 134.328125 210.273438 134.03125 210.171875 133.746094 L 212.882812 132.808594 C 213.023438 133.222656 213.140625 133.660156 213.222656 134.09375 Z M 198.179688 134.777344 L 195.347656 134.3125 C 195.425781 133.871094 195.527344 133.4375 195.660156 133.015625 L 198.390625 133.890625 C 198.300781 134.179688 198.230469 134.476562 198.179688 134.777344 Z M 213.285156 137.109375 L 210.449219 136.695312 C 210.492188 136.394531 210.515625 136.089844 210.515625 135.785156 L 210.515625 135.753906 L 213.378906 135.753906 L 213.378906 135.785156 C 213.378906 136.226562 213.347656 136.675781 213.285156 137.109375 Z M 195.359375 137.296875 C 195.285156 136.859375 195.246094 136.417969 195.238281 135.972656 L 198.097656 135.914062 C 198.105469 136.21875 198.132812 136.523438 198.1875 136.824219 Z M 212.367188 139.957031 L 209.824219 138.636719 C 209.964844 138.371094 210.082031 138.085938 210.183594 137.800781 L 212.890625 138.730469 C 212.75 139.148438 212.570312 139.566406 212.367188 139.957031 Z M 196.332031 140.121094 C 196.121094 139.730469 195.9375 139.320312 195.785156 138.902344 L 198.472656 137.921875 C 198.578125 138.207031 198.703125 138.484375 198.851562 138.746094 Z M 210.574219 142.34375 L 208.597656 140.277344 C 208.816406 140.0625 209.023438 139.835938 209.207031 139.59375 L 211.46875 141.355469 C 211.199219 141.707031 210.898438 142.035156 210.574219 142.34375 Z M 198.167969 142.464844 C 197.84375 142.167969 197.539062 141.84375 197.257812 141.5 L 199.480469 139.695312 C 199.675781 139.933594 199.886719 140.152344 200.109375 140.359375 Z M 208.113281 144.027344 L 206.910156 141.425781 C 207.183594 141.296875 207.453125 141.148438 207.707031 140.984375 L 209.277344 143.378906 C 208.90625 143.621094 208.515625 143.839844 208.113281 144.027344 Z M 200.675781 144.101562 C 200.265625 143.921875 199.871094 143.714844 199.492188 143.476562 L 201.015625 141.050781 C 201.273438 141.214844 201.542969 141.351562 201.824219 141.476562 Z M 205.230469 144.8125 L 204.941406 141.960938 C 205.246094 141.933594 205.546875 141.875 205.839844 141.800781 L 206.539062 144.582031 C 206.113281 144.691406 205.671875 144.765625 205.230469 144.8125 Z M 203.570312 144.832031 C 203.128906 144.792969 202.683594 144.726562 202.253906 144.628906 L 202.898438 141.832031 C 203.195312 141.902344 203.5 141.949219 203.800781 141.972656 L 203.570312 144.832031 " fill-opacity="1" fill-rule="nonzero"/><path stroke-linecap="round" transform="matrix(0.0854807, 0, 0, -0.0854807, 5.764714, 344.338717)" fill="none" stroke-linejoin="round" d="M 2879.773741 1980.515115 L 1995.436328 1980.515115 L 1995.436328 2899.034235 L 2879.773741 2899.034235 Z M 2879.773741 1980.515115 " stroke="#181821" stroke-width="30" stroke-opacity="1" stroke-miterlimit="10"/><path fill="#d9d9d9" d="M 195.414062 174.949219 L 173.230469 174.949219 L 173.230469 167.683594 L 195.414062 167.683594 L 195.414062 174.949219 " fill-opacity="1" fill-rule="nonzero"/><path stroke-linecap="round" transform="matrix(0.0854807, 0, 0, -0.0854807, 5.764714, 344.338717)" fill="none" stroke-linejoin="round" d="M 2218.622765 1981.611854 L 1959.10684 1981.611854 L 1959.10684 2066.609146 L 2218.622765 2066.609146 Z M 2218.622765 1981.611854 " stroke="#181821" stroke-width="30" stroke-opacity="1" stroke-miterlimit="10"/><path fill="#d9d9d9" d="M 221.328125 228.375 L 221.328125 247.578125 L 236.878906 247.578125 C 236.878906 247.578125 235.351562 221.742188 235.351562 209.050781 C 235.351562 196.363281 222.34375 186.171875 222.34375 186.171875 L 198.246094 176.992188 L 198.246094 173.167969 L 169.941406 173.167969 L 169.941406 176.992188 L 145.84375 186.171875 C 145.84375 186.171875 132.835938 196.363281 132.835938 209.050781 C 132.835938 221.742188 131.308594 247.578125 131.308594 247.578125 L 146.859375 247.578125 L 146.859375 228.375 L 150.789062 247.578125 L 217.398438 247.578125 L 221.328125 228.375 " fill-opacity="1" fill-rule="nonzero"/><g clip-path="url(#10944f2dc7)"><path stroke-linecap="round" transform="matrix(0.0854807, 0, 0, -0.0854807, 5.764714, 344.338717)" fill="none" stroke-linejoin="round" d="M 2521.779772 1356.607575 L 2521.779772 1131.958819 L 2703.701395 1131.958819 C 2703.701395 1131.958819 2685.833685 1434.201877 2685.833685 1582.672953 C 2685.833685 1731.098331 2533.661114 1850.323027 2533.661114 1850.323027 L 2251.75343 1957.712078 L 2251.75343 2002.4499 L 1920.629572 2002.4499 L 1920.629572 1957.712078 L 1638.721888 1850.323027 C 1638.721888 1850.323027 1486.549317 1731.098331 1486.549317 1582.672953 C 1486.549317 1434.201877 1468.681607 1131.958819 1468.681607 1131.958819 L 1650.60323 1131.958819 L 1650.60323 1356.607575 L 1696.574883 1131.958819 L 2475.808119 1131.958819 Z M 2521.779772 1356.607575 " stroke="#181821" stroke-width="30" stroke-opacity="1" stroke-miterlimit="10"/></g><path fill="#d9d9d9" d="M 171.277344 169.023438 L 197.070312 169.023438 C 199.078125 164.253906 202.289062 156.09375 203.066406 150.945312 C 203.96875 144.945312 205.550781 138.742188 202.890625 132.953125 C 201.117188 129.09375 197.863281 126.625 194.195312 125.34375 C 192.867188 124.878906 191.46875 124.503906 190.027344 124.234375 C 177.722656 121.914062 162.484375 126.871094 164.074219 143.257812 C 164.328125 145.847656 164.894531 148.378906 165.28125 150.945312 C 166.058594 156.089844 169.269531 164.253906 171.277344 169.023438 " fill-opacity="1" fill-rule="nonzero"/><path stroke-linecap="round" transform="matrix(0.0854807, 0, 0, -0.0854807, 5.764714, 344.338717)" fill="none" stroke-linejoin="round" d="M 1936.258106 2050.934914 L 2237.998492 2050.934914 C 2261.486991 2106.731523 2299.05031 2202.193535 2308.144106 2262.422799 C 2318.700221 2332.614111 2337.207696 2405.181691 2306.08772 2472.90534 C 2285.341069 2518.054439 2247.275078 2546.935239 2204.365155 2561.924009 C 2188.828015 2567.362007 2172.468322 2571.748964 2155.605956 2574.90209 C 2011.658929 2602.046386 1833.393104 2544.056298 1851.991974 2352.355417 C 1854.962309 2322.057996 1861.588442 2292.446036 1866.112492 2262.422799 C 1875.206288 2202.239233 1912.769607 2106.731523 1936.258106 2050.934914 Z M 1936.258106 2050.934914 " stroke="#181821" stroke-width="30" stroke-opacity="1" stroke-miterlimit="10"/><path stroke-linecap="round" transform="matrix(0.0854807, 0, 0, -0.0854807, 5.764714, 344.338717)" fill="none" stroke-linejoin="round" d="M 1685.698885 1787.214822 L 1914.825993 1874.45129 " stroke="#181821" stroke-width="30" stroke-opacity="1" stroke-miterlimit="10"/><path stroke-linecap="round" transform="matrix(0.0275508, 0, 0, -0.0275508, 126.331945, 101.107669)" fill-opacity="1" fill="#d9d9d9" fill-rule="nonzero" stroke-linejoin="round" d="M 2325.963804 2082.172652 C 2325.963804 2082.172652 2325.538453 1965.626497 2325.538453 1926.635995 C 2325.538453 1804.134927 2167.875041 1804.985629 2160.502292 1918.979678 C 2160.502292 1918.979678 2158.942672 2032.548377 2070.469678 2049.704198 C 2037.150522 2056.084462 1855.242107 2053.67414 1855.242107 2053.67414 " stroke="#040200" stroke-width="40" stroke-opacity="1" stroke-miterlimit="10"/><path stroke-linecap="round" transform="matrix(0.0275508, 0, 0, -0.0275508, 126.331945, 101.107669)" fill-opacity="1" fill="#d9d9d9" fill-rule="nonzero" stroke-linejoin="round" d="M 1855.242107 2853.050323 C 1855.242107 2853.050323 1855.525674 2969.738261 1855.525674 3008.58698 C 1855.525674 3131.229831 2013.189086 3130.379129 2020.561836 3016.38508 C 2020.561836 3016.38508 2021.979672 2902.674598 2110.736233 2885.660561 C 2143.913606 2879.138513 2325.963804 2881.548835 2325.963804 2881.548835 " stroke="#040200" stroke-width="40" stroke-opacity="1" stroke-miterlimit="10"/><path fill="#d9d9d9" d="M 183.957031 28.847656 L 183.957031 26.796875 L 181.566406 26.796875 C 181.429688 26.09375 181.152344 25.445312 180.765625 24.871094 L 182.457031 23.179688 L 181.007812 21.730469 L 179.316406 23.421875 C 178.746094 23.035156 178.09375 22.761719 177.390625 22.625 L 177.390625 20.230469 L 175.34375 20.230469 L 175.34375 22.625 C 174.640625 22.761719 173.988281 23.035156 173.417969 23.421875 L 171.726562 21.730469 L 170.273438 23.179688 L 171.96875 24.871094 C 171.582031 25.445312 171.304688 26.09375 171.167969 26.796875 L 168.777344 26.796875 L 168.777344 28.847656 L 171.167969 28.847656 C 171.304688 29.546875 171.582031 30.199219 171.96875 30.773438 L 170.273438 32.464844 L 171.722656 33.914062 L 173.417969 32.222656 C 173.988281 32.609375 174.640625 32.882812 175.34375 33.019531 L 175.34375 35.414062 L 177.390625 35.414062 L 177.390625 33.019531 C 178.09375 32.882812 178.746094 32.609375 179.316406 32.222656 L 181.007812 33.914062 L 182.457031 32.464844 L 180.765625 30.773438 C 181.152344 30.199219 181.429688 29.546875 181.566406 28.847656 L 183.957031 28.847656 " fill-opacity="1" fill-rule="nonzero"/><path stroke-linecap="round" transform="matrix(0.0275508, 0, 0, -0.0275508, 126.331945, 101.107669)" fill="none" stroke-linejoin="round" d="M 2091.595441 2622.793685 L 2091.595441 2697.230098 L 2004.823851 2697.230098 C 1999.861424 2722.751154 1989.794785 2746.287239 1975.758204 2767.129435 L 2037.150522 2828.521752 L 1984.54879 2881.123484 L 1923.156472 2819.731166 C 1902.456061 2833.767747 1878.778192 2843.692602 1853.257136 2848.65503 L 1853.257136 2935.568403 L 1778.962507 2935.568403 L 1778.962507 2848.65503 C 1753.441451 2843.692602 1729.763583 2833.767747 1709.063171 2819.731166 L 1647.670853 2881.123484 L 1594.927337 2828.521752 L 1656.461439 2767.129435 C 1642.424858 2746.287239 1632.358219 2722.751154 1627.395792 2697.230098 L 1540.624202 2697.230098 L 1540.624202 2622.793685 L 1627.395792 2622.793685 C 1632.358219 2597.414413 1642.424858 2573.736545 1656.461439 2552.894349 L 1594.927337 2491.502031 L 1647.670853 2438.9003 L 1709.063171 2500.292617 C 1729.763583 2486.256037 1753.441451 2476.331181 1778.962507 2471.368754 L 1778.962507 2384.45538 L 1853.257136 2384.45538 L 1853.257136 2471.368754 C 1878.778192 2476.331181 1902.456061 2486.256037 1923.156472 2500.292617 L 1984.54879 2438.9003 L 2037.150522 2491.502031 L 1975.758204 2552.894349 C 1989.794785 2573.736545 1999.861424 2597.414413 2004.823851 2622.793685 Z M 2091.595441 2622.793685 " stroke="#040200" stroke-width="40" stroke-opacity="1" stroke-miterlimit="10"/><path fill="#d9d9d9" d="M 179.886719 27.824219 C 179.886719 29.765625 178.308594 31.339844 176.367188 31.339844 C 174.421875 31.339844 172.847656 29.765625 172.847656 27.824219 C 172.847656 25.878906 174.421875 24.304688 176.367188 24.304688 C 178.308594 24.304688 179.886719 25.878906 179.886719 27.824219 " fill-opacity="1" fill-rule="nonzero"/><path stroke-linecap="round" transform="matrix(0.0275508, 0, 0, -0.0275508, 126.331945, 101.107669)" fill="none" stroke-linejoin="round" d="M 1943.856884 2659.941 C 1943.856884 2589.474529 1886.576292 2532.335721 1816.109822 2532.335721 C 1745.501567 2532.335721 1688.362759 2589.474529 1688.362759 2659.941 C 1688.362759 2730.549254 1745.501567 2787.688063 1816.109822 2787.688063 C 1886.576292 2787.688063 1943.856884 2730.549254 1943.856884 2659.941 Z M 1943.856884 2659.941 " stroke="#040200" stroke-width="40" stroke-opacity="1" stroke-miterlimit="10"/><g clip-path="url(#c94899551d)"><path fill="#d9d9d9" d="M 178.734375 45.320312 L 178.734375 43.679688 L 176.820312 43.679688 C 176.707031 43.117188 176.488281 42.59375 176.179688 42.136719 L 177.535156 40.78125 L 176.375 39.621094 L 175.019531 40.972656 C 174.558594 40.667969 174.039062 40.445312 173.476562 40.335938 L 173.476562 38.417969 L 171.835938 38.417969 L 171.835938 40.335938 C 171.273438 40.445312 170.753906 40.667969 170.292969 40.972656 L 168.9375 39.621094 L 167.777344 40.78125 L 169.132812 42.136719 C 168.824219 42.59375 168.601562 43.117188 168.492188 43.679688 L 166.578125 43.679688 L 166.578125 45.320312 L 168.492188 45.320312 C 168.601562 45.882812 168.824219 46.402344 169.132812 46.859375 L 167.777344 48.214844 L 168.9375 49.378906 L 170.292969 48.023438 C 170.753906 48.332031 171.273438 48.550781 171.835938 48.660156 L 171.835938 50.578125 L 173.476562 50.578125 L 173.476562 48.660156 C 174.039062 48.550781 174.558594 48.332031 175.019531 48.023438 L 176.375 49.378906 L 177.535156 48.214844 L 176.179688 46.859375 C 176.488281 46.402344 176.707031 45.882812 176.820312 45.320312 L 178.734375 45.320312 " fill-opacity="1" fill-rule="nonzero"/></g><g clip-path="url(#d500d1dbbb)"><path stroke-linecap="round" transform="matrix(0.0275508, 0, 0, -0.0275508, 126.331945, 101.107669)" fill="none" stroke-linejoin="round" d="M 1902.03071 2024.89206 L 1902.03071 2084.441191 L 1832.556724 2084.441191 C 1828.444999 2104.858035 1820.505114 2123.857043 1809.304207 2140.44573 L 1858.503131 2189.644654 L 1816.393389 2231.754396 L 1767.194464 2182.697256 C 1750.463995 2193.75638 1731.60677 2201.838047 1711.189925 2205.807989 L 1711.189925 2275.423758 L 1651.640795 2275.423758 L 1651.640795 2205.807989 C 1631.22395 2201.838047 1612.366726 2193.75638 1595.636256 2182.697256 L 1546.437331 2231.754396 L 1504.327589 2189.644654 L 1553.526514 2140.44573 C 1542.325606 2123.857043 1534.243938 2104.858035 1530.273996 2084.441191 L 1460.800011 2084.441191 L 1460.800011 2024.89206 L 1530.273996 2024.89206 C 1534.243938 2004.475216 1542.325606 1985.617991 1553.526514 1969.029305 L 1504.327589 1919.83038 L 1546.437331 1877.578854 L 1595.636256 1926.777779 C 1612.366726 1915.576871 1631.22395 1907.636987 1651.640795 1903.667045 L 1651.640795 1834.051276 L 1711.189925 1834.051276 L 1711.189925 1903.667045 C 1731.60677 1907.636987 1750.463995 1915.576871 1767.194464 1926.777779 L 1816.393389 1877.578854 L 1858.503131 1919.83038 L 1809.304207 1969.029305 C 1820.505114 1985.617991 1828.444999 2004.475216 1832.556724 2024.89206 Z M 1902.03071 2024.89206 " stroke="#040200" stroke-width="40" stroke-opacity="1" stroke-miterlimit="10"/></g><path fill="#d9d9d9" d="M 175.347656 44.5 C 175.347656 45.984375 174.144531 47.1875 172.65625 47.1875 C 171.171875 47.1875 169.96875 45.984375 169.96875 44.5 C 169.96875 43.015625 171.171875 41.808594 172.65625 41.808594 C 174.144531 41.808594 175.347656 43.015625 175.347656 44.5 " fill-opacity="1" fill-rule="nonzero"/><path stroke-linecap="round" transform="matrix(0.0275508, 0, 0, -0.0275508, 126.331945, 101.107669)" fill="none" stroke-linejoin="round" d="M 1779.104291 2054.666625 C 1779.104291 2000.788841 1735.434928 1957.119479 1681.41536 1957.119479 C 1627.537576 1957.119479 1583.868213 2000.788841 1583.868213 2054.666625 C 1583.868213 2108.54441 1627.537576 2152.355556 1681.41536 2152.355556 C 1735.434928 2152.355556 1779.104291 2108.54441 1779.104291 2054.666625 Z M 1779.104291 2054.666625 " stroke="#040200" stroke-width="40" stroke-opacity="1" stroke-miterlimit="10"/><path fill="#d9d9d9" d="M 197.574219 23.167969 C 197.574219 23.167969 196.753906 22.503906 196.015625 22.011719 C 192.9375 19.980469 190.0625 19.289062 187.503906 19.339844 C 187.433594 19.335938 187.363281 19.339844 187.296875 19.339844 L 187.296875 59.105469 L 191.375 59.105469 C 192.28125 54.347656 194.539062 51.308594 195.65625 50.039062 C 195.863281 49.832031 196.078125 49.605469 196.300781 49.367188 C 201.125 44.234375 208.46875 32.667969 197.574219 23.167969 " fill-opacity="1" fill-rule="nonzero"/><path stroke-linecap="round" transform="matrix(0.0275508, 0, 0, -0.0275508, 126.331945, 101.107669)" fill="none" stroke-linejoin="round" d="M 2585.853223 2828.947103 C 2585.853223 2828.947103 2556.078658 2853.050323 2529.281549 2870.915062 C 2417.556038 2944.642556 2313.203276 2969.738261 2220.33499 2967.895074 C 2217.782884 2968.036858 2215.230778 2967.895074 2212.820456 2967.895074 L 2212.820456 1524.537582 L 2360.84258 1524.537582 C 2393.736386 1697.23006 2475.687332 1807.537735 2516.237454 1853.617419 C 2523.751987 1861.131952 2531.550087 1869.355403 2539.631755 1878.004205 C 2714.734555 2064.307913 2981.287805 2484.129282 2585.853223 2828.947103 Z M 2585.853223 2828.947103 " stroke="#040200" stroke-width="40" stroke-opacity="1" stroke-miterlimit="10"/><path stroke-linecap="round" transform="matrix(0.0275508, 0, 0, -0.0275508, 126.331945, 101.107669)" fill="none" stroke-linejoin="round" d="M 2308.524416 1754.227085 L 2413.160745 2275.423758 L 2212.820456 2275.423758 " stroke="#040200" stroke-width="40" stroke-opacity="1" stroke-miterlimit="10"/><g clip-path="url(#9f766e2318)"><path fill="#d9d9d9" d="M 191.496094 53.46875 L 187.296875 53.46875 L 187.296875 69.394531 C 187.363281 69.398438 187.429688 69.402344 187.5 69.402344 C 189.769531 69.402344 191.609375 67.535156 191.609375 65.226562 L 191.609375 65.222656 C 192.769531 65.171875 193.695312 64.367188 193.695312 63.375 L 193.695312 55.316406 C 193.695312 54.296875 192.710938 53.46875 191.496094 53.46875 " fill-opacity="1" fill-rule="nonzero"/></g><g clip-path="url(#6038ed93c8)"><path stroke-linecap="round" transform="matrix(0.0275508, 0, 0, -0.0275508, 126.331945, 101.107669)" fill="none" stroke-linejoin="round" d="M 2365.237873 1729.13138 L 2212.820456 1729.13138 L 2212.820456 1151.079465 C 2215.230778 1150.937681 2217.6411 1150.795897 2220.193206 1150.795897 C 2302.569503 1150.795897 2369.349599 1218.568479 2369.349599 1302.362612 L 2369.349599 1302.504396 C 2411.459341 1304.347583 2445.062065 1333.555014 2445.062065 1369.568059 L 2445.062065 1662.067716 C 2445.062065 1699.073247 2409.332586 1729.13138 2365.237873 1729.13138 Z M 2365.237873 1729.13138 " stroke="#040200" stroke-width="40" stroke-opacity="1" stroke-miterlimit="10"/></g><path fill="#d9d9d9" d="M 187.296875 52.175781 L 187.296875 56.988281 L 194.722656 56.988281 L 194.722656 52.175781 L 187.296875 52.175781 " fill-opacity="1" fill-rule="nonzero"/><path stroke-linecap="round" transform="matrix(0.0275508, 0, 0, -0.0275508, 126.331945, 101.107669)" fill="none" stroke-linejoin="round" d="M 2212.820456 1601.384317 L 2482.351163 1601.384317 L 2482.351163 1776.061766 L 2212.820456 1776.061766 Z M 2212.820456 1601.384317 " stroke="#040200" stroke-width="40" stroke-opacity="1" stroke-miterlimit="10"/><g clip-path="url(#141a55aead)"><path fill="#000000" d="M 123.933594 96.761719 C 123.296875 96.882812 122.609375 97.003906 121.851562 97.128906 C 122.007812 97.558594 122.136719 98.019531 122.257812 98.527344 C 122.847656 98.273438 123.453125 98.011719 124.078125 97.757812 C 124.066406 97.679688 124.054688 97.613281 124.042969 97.535156 C 124.011719 97.28125 123.976562 97.015625 123.933594 96.761719 Z M 119.695312 100.394531 C 119.804688 101 119.902344 101.652344 119.96875 102.347656 C 120.605469 101.90625 121.28125 101.433594 122.015625 100.925781 C 122.015625 100.925781 122.027344 100.925781 122.027344 100.914062 C 121.972656 100.714844 121.941406 100.515625 121.917969 100.285156 C 121.886719 99.984375 121.84375 99.710938 121.796875 99.433594 C 121.085938 99.753906 120.394531 100.074219 119.695312 100.394531 Z M 121.054688 95.359375 C 121.25 95.691406 121.4375 96.066406 121.613281 96.5 C 122.410156 96.375 123.132812 96.253906 123.800781 96.121094 C 123.726562 95.8125 123.636719 95.503906 123.507812 95.21875 C 122.785156 95.296875 121.960938 95.339844 121.054688 95.359375 Z M 127.546875 97.765625 C 127.296875 97.644531 127.109375 97.492188 126.957031 97.324219 C 126.203125 97.601562 125.488281 97.878906 124.800781 98.152344 C 124.863281 98.527344 124.941406 98.828125 125.050781 99.058594 C 125.90625 98.585938 126.738281 98.152344 127.546875 97.765625 Z M 122.554688 100.230469 C 122.566406 100.339844 122.585938 100.4375 122.597656 100.550781 C 123.234375 100.140625 123.867188 99.753906 124.480469 99.402344 C 124.339844 99.113281 124.25 98.78125 124.175781 98.429688 C 123.5625 98.683594 122.96875 98.9375 122.390625 99.191406 C 122.457031 99.511719 122.511719 99.851562 122.554688 100.230469 Z M 124.175781 95.128906 C 124.285156 95.40625 124.371094 95.691406 124.4375 95.992188 C 125.105469 95.847656 125.707031 95.703125 126.257812 95.550781 C 126.203125 95.316406 126.125 95.0625 126.015625 94.789062 C 125.476562 94.917969 124.863281 95.042969 124.175781 95.128906 Z M 127.648438 97.082031 C 127.824219 97.203125 128.050781 97.304688 128.359375 97.390625 C 129.476562 96.882812 130.507812 96.464844 131.449219 96.121094 C 131.152344 96.066406 130.867188 96.023438 130.605469 95.957031 C 129.75 96.300781 128.785156 96.675781 127.648438 97.082031 Z M 126.058594 100.660156 C 126.167969 100.582031 126.257812 100.527344 126.367188 100.449219 C 125.871094 100.394531 125.5 100.304688 125.25 100.128906 C 125.105469 100.074219 124.996094 99.996094 124.886719 99.910156 C 124.207031 100.296875 123.519531 100.726562 122.804688 101.179688 C 123.035156 101.664062 123.398438 102.015625 123.867188 102.257812 C 124.546875 101.75 125.269531 101.222656 126.058594 100.660156 Z M 117.867188 95.304688 C 118.148438 95.769531 118.433594 96.320312 118.699219 96.949219 C 119.398438 96.816406 120.15625 96.6875 120.945312 96.585938 C 120.722656 96.101562 120.496094 95.691406 120.265625 95.351562 C 119.421875 95.304688 118.609375 95.296875 117.867188 95.304688 Z M 127.230469 99.875 C 128.207031 99.234375 129.113281 98.707031 129.957031 98.265625 C 129.75 98.242188 129.574219 98.230469 129.421875 98.21875 C 129.421875 98.21875 129.015625 98.1875 129.015625 98.1875 C 128.796875 98.152344 128.601562 98.109375 128.425781 98.066406 C 127.503906 98.496094 126.53125 98.980469 125.523438 99.542969 L 125.566406 99.554688 L 125.609375 99.589844 C 125.816406 99.753906 126.441406 99.808594 127.164062 99.863281 C 127.1875 99.875 127.210938 99.875 127.230469 99.875 Z M 119.355469 102.777344 C 119.289062 102.027344 119.203125 101.332031 119.082031 100.691406 C 118.699219 100.867188 118.324219 101.046875 117.929688 101.234375 C 117.582031 101.398438 117.21875 101.5625 116.847656 101.742188 C 117 102.503906 117.132812 103.320312 117.230469 104.214844 C 117.886719 103.773438 118.589844 103.296875 119.355469 102.777344 Z M 117.667969 100.625 C 118.105469 100.417969 118.535156 100.21875 118.960938 100.019531 C 118.773438 99.136719 118.542969 98.375 118.292969 97.691406 C 117.40625 97.878906 116.585938 98.085938 115.839844 98.308594 C 116.167969 99.101562 116.464844 100.019531 116.714844 101.054688 C 117.042969 100.925781 117.363281 100.769531 117.667969 100.625 Z M 119.234375 106.1875 C 119.617188 105.847656 120.023438 105.484375 120.441406 105.117188 C 119.890625 104.578125 119.605469 104.003906 119.476562 103.484375 C 118.699219 104.015625 117.976562 104.488281 117.328125 104.917969 C 117.4375 105.8125 117.734375 106.554688 118.160156 107.160156 C 118.511719 106.839844 118.863281 106.519531 119.234375 106.1875 Z M 120.636719 94.710938 C 120.679688 94.710938 120.714844 94.710938 120.757812 94.722656 C 121.644531 94.710938 122.445312 94.664062 123.167969 94.597656 C 122.96875 94.324219 122.71875 94.070312 122.410156 93.859375 C 121.65625 93.925781 120.824219 93.914062 119.9375 93.871094 C 120.144531 94.082031 120.386719 94.355469 120.636719 94.710938 Z M 113.867188 95.019531 C 114.6875 94.875 115.609375 94.765625 116.617188 94.699219 C 116.023438 93.992188 115.476562 93.640625 115.148438 93.527344 C 115.148438 93.527344 115.105469 93.507812 115.027344 93.472656 C 114.042969 93.417969 113.046875 93.398438 112.070312 93.453125 C 112.585938 93.773438 113.222656 94.269531 113.867188 95.019531 Z M 117.425781 94.664062 C 118.160156 94.644531 118.949219 94.644531 119.78125 94.675781 C 119.269531 94.058594 118.863281 93.804688 118.851562 93.792969 C 118.445312 93.761719 118.03125 93.726562 117.613281 93.683594 C 117.21875 93.648438 116.824219 93.617188 116.429688 93.574219 C 116.738281 93.847656 117.078125 94.203125 117.425781 94.664062 Z M 110.527344 95.914062 C 111.25 95.636719 112.09375 95.382812 113.101562 95.164062 C 112.070312 94.082031 111.160156 93.683594 110.867188 93.574219 C 109.980469 93.695312 109.113281 93.902344 108.292969 94.222656 C 109.167969 94.621094 109.902344 95.207031 110.527344 95.914062 Z M 133.78125 99.378906 C 132.917969 99.722656 132.019531 100.117188 131.109375 100.59375 C 131.632812 100.769531 132.171875 101 132.71875 101.289062 C 132.839844 101.234375 132.949219 101.179688 133.070312 101.121094 C 133.769531 100.800781 134.40625 100.527344 135.007812 100.285156 C 134.625 99.917969 134.207031 99.621094 133.78125 99.378906 Z M 137.460938 98.21875 C 136.574219 98.429688 135.589844 98.714844 134.546875 99.09375 C 134.929688 99.355469 135.304688 99.664062 135.664062 100.019531 C 136.761719 99.597656 137.679688 99.3125 138.492188 99.101562 C 138.152344 98.773438 137.8125 98.472656 137.460938 98.21875 Z M 131.996094 95.550781 C 132.238281 95.59375 132.488281 95.625 132.75 95.671875 C 133.925781 95.296875 134.886719 95.042969 135.601562 94.886719 C 135.160156 94.789062 134.734375 94.699219 134.328125 94.609375 C 133.496094 94.820312 132.675781 95.128906 131.734375 95.492188 C 131.820312 95.515625 131.910156 95.527344 131.996094 95.550781 Z M 135.097656 96.246094 C 136.125 95.992188 137.011719 95.867188 137.800781 95.746094 C 137.800781 95.746094 137.953125 95.726562 138.152344 95.691406 C 137.78125 95.539062 137.394531 95.394531 137.023438 95.273438 C 136.804688 95.304688 135.742188 95.460938 134.066406 95.933594 C 134.40625 96.035156 134.746094 96.132812 135.097656 96.246094 Z M 118.050781 97.082031 C 117.757812 96.386719 117.425781 95.8125 117.109375 95.339844 C 116.101562 95.382812 115.183594 95.484375 114.347656 95.613281 C 114.777344 96.1875 115.191406 96.882812 115.585938 97.722656 C 116.332031 97.492188 117.152344 97.28125 118.050781 97.082031 Z M 126.398438 94.027344 C 126.988281 93.859375 127.492188 93.660156 127.921875 93.472656 C 127.867188 93.351562 127.824219 93.242188 127.777344 93.132812 C 127.667969 92.867188 127.570312 92.636719 127.472656 92.457031 C 126.988281 92.710938 126.464844 92.945312 125.882812 93.132812 C 126.101562 93.453125 126.265625 93.75 126.398438 94.027344 Z M 110.964844 96.464844 C 111.511719 97.203125 111.949219 98.042969 112.324219 98.949219 C 113.066406 98.605469 113.933594 98.253906 114.929688 97.921875 C 114.503906 97.027344 114.042969 96.320312 113.582031 95.746094 C 112.574219 95.945312 111.699219 96.199219 110.964844 96.464844 Z M 124.570312 96.628906 C 124.613281 96.90625 124.65625 97.183594 124.691406 97.449219 C 124.691406 97.46875 124.699219 97.492188 124.699219 97.511719 C 125.3125 97.269531 125.9375 97.027344 126.605469 96.773438 C 126.53125 96.597656 126.476562 96.398438 126.421875 96.1875 C 125.863281 96.332031 125.25 96.488281 124.570312 96.628906 Z M 129.300781 94.523438 C 129.871094 94.289062 130.34375 94.058594 130.757812 93.859375 C 130.757812 93.859375 130.8125 93.839844 130.890625 93.792969 C 130.847656 93.773438 130.8125 93.75 130.78125 93.726562 C 130.484375 93.527344 130.234375 93.285156 130.023438 93 C 129.671875 93.242188 129.28125 93.496094 128.785156 93.761719 C 128.917969 94.035156 129.09375 94.289062 129.300781 94.523438 Z M 123.308594 102.699219 C 122.859375 102.425781 122.5 102.050781 122.246094 101.554688 C 121.457031 102.105469 120.722656 102.625 120.046875 103.085938 C 120.144531 103.707031 120.441406 104.234375 120.921875 104.6875 C 121.65625 104.058594 122.445312 103.398438 123.308594 102.699219 Z M 119.871094 109.457031 C 119.214844 109.09375 118.597656 108.640625 118.074219 108.078125 C 117.1875 108.839844 116.300781 109.566406 115.3125 110.261719 C 115.742188 111.246094 116.199219 111.949219 116.726562 112.523438 C 117.789062 111.609375 118.828125 110.558594 119.871094 109.457031 Z M 139.203125 96.1875 L 137.890625 96.398438 C 137.339844 96.476562 136.773438 96.5625 136.148438 96.675781 C 136.628906 96.90625 137.113281 97.171875 137.59375 97.511719 C 138.796875 97.238281 139.796875 97.082031 140.484375 96.996094 C 140.078125 96.695312 139.652344 96.433594 139.203125 96.1875 Z M 128.382812 92.878906 C 128.425781 92.976562 128.457031 93.078125 128.5 93.175781 C 128.960938 92.921875 129.335938 92.679688 129.671875 92.4375 C 129.488281 92.070312 129.34375 91.664062 129.234375 91.1875 C 128.886719 91.53125 128.480469 91.839844 128.03125 92.117188 C 128.152344 92.347656 128.261719 92.601562 128.382812 92.878906 Z M 121.128906 108.144531 C 121.667969 107.570312 122.214844 106.996094 122.773438 106.421875 C 122.007812 106.179688 121.402344 105.878906 120.945312 105.550781 C 120.503906 105.933594 120.078125 106.320312 119.671875 106.6875 C 119.300781 107.015625 118.929688 107.347656 118.566406 107.667969 C 119.058594 108.199219 119.660156 108.617188 120.351562 108.96875 C 120.605469 108.695312 120.867188 108.417969 121.128906 108.144531 Z M 127.121094 102.382812 C 127.878906 101.796875 128.644531 101.277344 129.410156 100.800781 C 128.675781 100.660156 127.996094 100.59375 127.394531 100.550781 C 127.078125 100.757812 126.761719 100.96875 126.429688 101.199219 C 125.761719 101.664062 125.148438 102.117188 124.570312 102.558594 C 125.128906 102.734375 125.773438 102.832031 126.464844 102.921875 C 126.671875 102.734375 126.890625 102.558594 127.121094 102.382812 Z M 107.449219 97.679688 C 107.808594 97.359375 108.578125 96.75 109.902344 96.179688 C 109.234375 95.472656 108.433594 94.917969 107.460938 94.597656 C 106.703125 94.984375 105.980469 95.484375 105.324219 96.132812 C 105.816406 96.332031 106.59375 96.773438 107.449219 97.679688 Z M 125.796875 103.484375 C 125.140625 103.386719 124.515625 103.253906 123.957031 103.019531 C 123.035156 103.738281 122.203125 104.433594 121.449219 105.097656 C 121.941406 105.417969 122.554688 105.679688 123.289062 105.878906 C 124.097656 105.050781 124.941406 104.246094 125.796875 103.484375 Z M 129.609375 103.308594 C 130.363281 102.691406 131.164062 102.128906 132.019531 101.652344 C 131.4375 101.375 130.878906 101.167969 130.332031 101.023438 C 129.390625 101.5625 128.445312 102.183594 127.515625 102.898438 C 127.460938 102.945312 127.417969 102.976562 127.363281 103.019531 C 127.375 103.019531 127.394531 103.019531 127.40625 103.019531 C 128.128906 103.097656 128.886719 103.175781 129.609375 103.308594 Z M 127.339844 103.671875 C 127.109375 103.648438 126.878906 103.628906 126.652344 103.59375 C 125.753906 104.355469 124.875 105.195312 124.023438 106.054688 C 124.753906 106.199219 125.578125 106.289062 126.496094 106.320312 C 127.296875 105.4375 128.105469 104.609375 128.949219 103.847656 C 128.425781 103.78125 127.878906 103.726562 127.339844 103.671875 Z M 141.195312 97.589844 C 140.660156 97.636719 139.621094 97.757812 138.285156 98.042969 C 138.601562 98.308594 138.90625 98.605469 139.226562 98.925781 C 140.363281 98.683594 141.242188 98.605469 141.996094 98.539062 C 141.996094 98.539062 142.0625 98.539062 142.074219 98.527344 C 141.800781 98.1875 141.503906 97.878906 141.195312 97.589844 Z M 114.523438 110.019531 C 114.285156 109.402344 114.054688 108.707031 113.824219 107.890625 L 113.691406 107.148438 C 112.695312 107.722656 111.929688 108.109375 111.292969 108.40625 C 111.324219 108.605469 111.347656 108.816406 111.382812 109.015625 C 111.5 109.886719 111.621094 110.757812 111.753906 111.621094 C 112.78125 111.113281 113.691406 110.582031 114.523438 110.019531 Z M 123.484375 106.609375 C 122.847656 107.257812 122.226562 107.933594 121.601562 108.585938 C 121.394531 108.816406 121.171875 109.035156 120.964844 109.257812 C 121.6875 109.578125 122.464844 109.84375 123.277344 110.085938 C 123.550781 109.765625 123.835938 109.433594 124.109375 109.101562 C 124.734375 108.363281 125.347656 107.636719 125.960938 106.941406 C 124.996094 106.894531 124.1875 106.773438 123.484375 106.609375 Z M 116.703125 113.40625 C 115.433594 114.476562 114.128906 115.371094 112.75 115.945312 C 113.066406 116.839844 113.460938 117.589844 113.957031 118.152344 C 115.773438 117.25 117.261719 116.066406 118.699219 114.777344 C 117.929688 114.355469 117.328125 113.96875 116.703125 113.40625 Z M 120.472656 109.765625 C 119.378906 110.914062 118.292969 112.003906 117.199219 112.976562 C 117.8125 113.507812 118.5 113.914062 119.300781 114.355469 C 120.550781 113.1875 121.699219 111.917969 122.792969 110.636719 C 122.070312 110.40625 121.261719 110.140625 120.472656 109.765625 Z M 111.996094 99.832031 C 110.867188 100.394531 110.097656 100.914062 109.628906 101.253906 C 109.695312 101.410156 109.761719 101.5625 109.816406 101.71875 C 110.089844 102.347656 110.320312 103.085938 110.503906 103.871094 C 111.335938 103.519531 112.113281 103.164062 112.847656 102.84375 C 112.617188 101.816406 112.34375 100.792969 111.996094 99.832031 Z M 129.859375 94.984375 C 129.925781 95.03125 129.992188 95.074219 130.066406 95.105469 C 130.210938 95.171875 130.386719 95.21875 130.5625 95.273438 C 130.582031 95.261719 130.605469 95.25 130.636719 95.238281 C 131.492188 94.898438 132.226562 94.597656 132.9375 94.355469 C 132.488281 94.269531 132.09375 94.203125 131.753906 94.113281 L 131.03125 94.445312 C 130.679688 94.621094 130.296875 94.796875 129.859375 94.984375 Z M 123.878906 94.523438 C 124.582031 94.433594 125.203125 94.324219 125.753906 94.191406 C 125.609375 93.925781 125.445312 93.640625 125.226562 93.332031 C 124.625 93.496094 123.96875 93.640625 123.265625 93.738281 C 123.519531 93.980469 123.714844 94.246094 123.878906 94.523438 Z M 126.652344 94.621094 C 126.75 94.898438 126.824219 95.140625 126.878906 95.371094 C 127.558594 95.171875 128.152344 94.964844 128.667969 94.777344 C 128.480469 94.542969 128.328125 94.300781 128.195312 94.058594 C 127.757812 94.257812 127.253906 94.445312 126.652344 94.621094 Z M 127.210938 96.542969 C 128.128906 96.222656 128.941406 95.914062 129.664062 95.613281 C 129.476562 95.515625 129.3125 95.394531 129.160156 95.273438 C 128.566406 95.503906 127.867188 95.757812 127.035156 96 C 127.089844 96.210938 127.144531 96.386719 127.210938 96.542969 Z M 136.738281 97.734375 C 136.167969 97.390625 135.609375 97.128906 135.050781 96.929688 C 134.164062 97.148438 133.167969 97.480469 132.039062 97.964844 C 132.609375 98.121094 133.222656 98.339844 133.824219 98.660156 C 134.855469 98.273438 135.839844 97.976562 136.738281 97.734375 Z M 112.554688 115.328125 C 113.824219 114.789062 115.039062 113.949219 116.246094 112.945312 C 115.707031 112.359375 115.226562 111.621094 114.777344 110.625 C 113.898438 111.199219 112.949219 111.75 111.863281 112.28125 C 112.050781 113.375 112.277344 114.410156 112.554688 115.328125 Z M 133.003906 98.992188 C 132.324219 98.707031 131.667969 98.527344 131.066406 98.417969 C 130.210938 98.839844 129.289062 99.347656 128.273438 99.984375 C 128.863281 100.050781 129.519531 100.164062 130.222656 100.339844 C 131.164062 99.808594 132.105469 99.367188 133.003906 98.992188 Z M 115.203125 98.519531 C 114.183594 98.847656 113.308594 99.203125 112.5625 99.554688 C 112.925781 100.527344 113.210938 101.554688 113.453125 102.578125 C 114.402344 102.148438 115.28125 101.742188 116.113281 101.367188 C 115.859375 100.273438 115.554688 99.335938 115.203125 98.519531 Z M 116.628906 104.589844 C 116.539062 103.648438 116.410156 102.789062 116.253906 102.003906 C 115.421875 102.390625 114.546875 102.789062 113.605469 103.21875 C 113.824219 104.222656 114 105.207031 114.164062 106.121094 C 114.863281 105.703125 115.6875 105.207031 116.628906 104.589844 Z M 115.074219 109.644531 C 115.992188 108.992188 116.835938 108.296875 117.667969 107.578125 C 117.21875 106.949219 116.878906 106.210938 116.726562 105.296875 C 115.796875 105.890625 114.984375 106.386719 114.285156 106.808594 C 114.359375 107.238281 114.457031 107.734375 114.457031 107.734375 C 114.65625 108.460938 114.863281 109.09375 115.074219 109.644531 Z M 113.570312 106.476562 L 113.539062 106.277344 C 113.375 105.382812 113.210938 104.445312 113.011719 103.496094 C 112.277344 103.828125 111.5 104.167969 110.667969 104.523438 C 110.878906 105.527344 111.050781 106.609375 111.214844 107.734375 C 111.828125 107.4375 112.585938 107.039062 113.570312 106.476562 Z M 133.914062 96.574219 C 133.53125 96.476562 133.144531 96.398438 132.785156 96.332031 C 131.820312 96.640625 130.726562 97.050781 129.519531 97.570312 C 129.871094 97.589844 130.386719 97.625 130.988281 97.734375 C 132.074219 97.226562 133.046875 96.851562 133.914062 96.574219 Z M 109.355469 100.648438 C 109.859375 100.296875 110.636719 99.777344 111.753906 99.222656 C 111.371094 98.296875 110.910156 97.4375 110.351562 96.71875 C 108.980469 97.292969 108.203125 97.890625 107.863281 98.1875 C 108.367188 98.804688 108.871094 99.609375 109.355469 100.648438 Z M 119.5625 99.742188 C 120.265625 99.421875 120.953125 99.101562 121.65625 98.792969 C 121.523438 98.207031 121.371094 97.679688 121.195312 97.214844 C 120.394531 97.316406 119.640625 97.4375 118.9375 97.570312 C 119.167969 98.207031 119.386719 98.9375 119.5625 99.742188 Z M 119.5625 99.742188 " fill-opacity="1" fill-rule="evenodd"/></g><g fill="#d9d9d9" fill-opacity="1"><g transform="translate(136.648956, 291.923519)"><g><path d="M 11.84375 0 L 7.9375 -7.421875 L 6.0625 -7.421875 L 6.0625 0 L 2.171875 0 L 2.171875 -19.421875 L 9.84375 -19.421875 C 11 -19.421875 11.976562 -19.179688 12.78125 -18.703125 C 13.59375 -18.222656 14.222656 -17.597656 14.671875 -16.828125 C 15.128906 -16.054688 15.410156 -15.222656 15.515625 -14.328125 C 15.617188 -13.429688 15.546875 -12.550781 15.296875 -11.6875 C 15.054688 -10.832031 14.640625 -10.070312 14.046875 -9.40625 C 13.460938 -8.75 12.691406 -8.285156 11.734375 -8.015625 L 16.25 0 Z M 6.0625 -11.1875 L 9.484375 -11.1875 C 10.003906 -11.1875 10.421875 -11.332031 10.734375 -11.625 C 11.054688 -11.914062 11.269531 -12.28125 11.375 -12.71875 C 11.488281 -13.15625 11.488281 -13.585938 11.375 -14.015625 C 11.269531 -14.453125 11.054688 -14.816406 10.734375 -15.109375 C 10.421875 -15.398438 10.003906 -15.546875 9.484375 -15.546875 L 6.0625 -15.546875 Z M 6.0625 -11.1875 "/></g></g></g><g fill="#d9d9d9" fill-opacity="1"><g transform="translate(153.297976, 291.923519)"><g><path d="M 11.515625 0.265625 C 9.847656 0.265625 8.382812 -0.0078125 7.125 -0.5625 C 5.875 -1.125 4.832031 -1.878906 4 -2.828125 C 3.164062 -3.785156 2.539062 -4.863281 2.125 -6.0625 C 1.707031 -7.257812 1.5 -8.484375 1.5 -9.734375 C 1.5 -10.992188 1.707031 -12.222656 2.125 -13.421875 C 2.539062 -14.617188 3.164062 -15.691406 4 -16.640625 C 4.832031 -17.585938 5.875 -18.34375 7.125 -18.90625 C 8.382812 -19.46875 9.847656 -19.75 11.515625 -19.75 C 13.179688 -19.75 14.644531 -19.46875 15.90625 -18.90625 C 17.164062 -18.34375 18.210938 -17.585938 19.046875 -16.640625 C 19.878906 -15.691406 20.503906 -14.617188 20.921875 -13.421875 C 21.335938 -12.222656 21.546875 -10.992188 21.546875 -9.734375 C 21.546875 -8.484375 21.335938 -7.257812 20.921875 -6.0625 C 20.503906 -4.863281 19.878906 -3.785156 19.046875 -2.828125 C 18.210938 -1.878906 17.164062 -1.125 15.90625 -0.5625 C 14.644531 -0.0078125 13.179688 0.265625 11.515625 0.265625 Z M 11.515625 -3.75 C 12.617188 -3.75 13.566406 -3.960938 14.359375 -4.390625 C 15.160156 -4.828125 15.796875 -5.40625 16.265625 -6.125 C 16.742188 -6.84375 17.0625 -7.625 17.21875 -8.46875 C 17.382812 -9.320312 17.382812 -10.175781 17.21875 -11.03125 C 17.0625 -11.882812 16.742188 -12.664062 16.265625 -13.375 C 15.796875 -14.09375 15.160156 -14.671875 14.359375 -15.109375 C 13.566406 -15.546875 12.617188 -15.765625 11.515625 -15.765625 C 10.410156 -15.765625 9.457031 -15.546875 8.65625 -15.109375 C 7.863281 -14.671875 7.234375 -14.09375 6.765625 -13.375 C 6.296875 -12.664062 5.976562 -11.882812 5.8125 -11.03125 C 5.644531 -10.175781 5.644531 -9.320312 5.8125 -8.46875 C 5.976562 -7.625 6.296875 -6.84375 6.765625 -6.125 C 7.234375 -5.40625 7.863281 -4.828125 8.65625 -4.390625 C 9.457031 -3.960938 10.410156 -3.75 11.515625 -3.75 Z M 11.515625 -3.75 "/></g></g></g><g fill="#d9d9d9" fill-opacity="1"><g transform="translate(176.302401, 291.923519)"><g><path d="M 11.09375 -11.1875 L 18.75 -19.734375 L 19.96875 -19.734375 L 19.96875 0 L 16.03125 0 L 16.0625 -10.84375 L 11.09375 -5.625 L 6.109375 -10.84375 L 6.109375 0 L 2.171875 0 L 2.171875 -19.734375 L 3.421875 -19.734375 Z M 11.09375 -11.1875 "/></g></g></g><g fill="#d9d9d9" fill-opacity="1"><g transform="translate(198.464867, 291.923519)"><g><path d="M 6.0625 0 L 2.171875 0 L 2.171875 -19.421875 L 6.0625 -19.421875 Z M 6.0625 0 "/></g></g></g><g fill="#d9d9d9" fill-opacity="1"><g transform="translate(206.721469, 291.923519)"><g><path d="M 2.171875 -19.421875 L 6.0625 -19.421875 L 6.0625 -3.890625 L 12.234375 -3.890625 L 12.234375 0 L 2.171875 0 Z M 2.171875 -19.421875 "/></g></g></g><g fill="#d9d9d9" fill-opacity="1"><g transform="translate(220.111288, 291.923519)"><g><path d="M 16.109375 -6.765625 C 16.109375 -5.441406 15.851562 -4.304688 15.34375 -3.359375 C 14.84375 -2.421875 14.175781 -1.671875 13.34375 -1.109375 C 12.507812 -0.546875 11.59375 -0.171875 10.59375 0.015625 C 9.601562 0.203125 8.601562 0.203125 7.59375 0.015625 C 6.59375 -0.171875 5.675781 -0.546875 4.84375 -1.109375 C 4.007812 -1.671875 3.335938 -2.421875 2.828125 -3.359375 C 2.316406 -4.304688 2.0625 -5.441406 2.0625 -6.765625 L 2.0625 -19.421875 L 5.953125 -19.421875 L 5.953125 -6.796875 C 5.953125 -5.972656 6.164062 -5.316406 6.59375 -4.828125 C 7.019531 -4.347656 7.546875 -4.023438 8.171875 -3.859375 C 8.796875 -3.691406 9.421875 -3.691406 10.046875 -3.859375 C 10.671875 -4.023438 11.191406 -4.347656 11.609375 -4.828125 C 12.035156 -5.316406 12.25 -5.972656 12.25 -6.796875 L 12.25 -19.421875 L 16.109375 -19.421875 Z M 16.109375 -6.765625 "/></g></g></g><g fill="#d9d9d9" fill-opacity="1"><g transform="translate(87.319443, 320.462548)"><g><path d="M 0.671875 -7.109375 C 0.671875 -8.515625 0.972656 -9.765625 1.578125 -10.859375 C 2.179688 -11.960938 3.023438 -12.820312 4.109375 -13.4375 C 5.191406 -14.050781 6.421875 -14.359375 7.796875 -14.359375 C 9.484375 -14.359375 10.925781 -13.910156 12.125 -13.015625 C 13.332031 -12.128906 14.132812 -10.914062 14.53125 -9.375 L 10.734375 -9.375 C 10.453125 -9.96875 10.050781 -10.421875 9.53125 -10.734375 C 9.007812 -11.046875 8.421875 -11.203125 7.765625 -11.203125 C 6.703125 -11.203125 5.835938 -10.832031 5.171875 -10.09375 C 4.515625 -9.351562 4.1875 -8.359375 4.1875 -7.109375 C 4.1875 -5.867188 4.515625 -4.878906 5.171875 -4.140625 C 5.835938 -3.398438 6.703125 -3.03125 7.765625 -3.03125 C 8.421875 -3.03125 9.007812 -3.1875 9.53125 -3.5 C 10.050781 -3.8125 10.453125 -4.265625 10.734375 -4.859375 L 14.53125 -4.859375 C 14.132812 -3.316406 13.332031 -2.101562 12.125 -1.21875 C 10.925781 -0.34375 9.484375 0.09375 7.796875 0.09375 C 6.421875 0.09375 5.191406 -0.207031 4.109375 -0.8125 C 3.023438 -1.425781 2.179688 -2.28125 1.578125 -3.375 C 0.972656 -4.46875 0.671875 -5.710938 0.671875 -7.109375 Z M 0.671875 -7.109375 "/></g></g></g><g fill="#d9d9d9" fill-opacity="1"><g transform="translate(105.246649, 320.462548)"><g><path d="M 7.96875 0.140625 C 6.632812 0.140625 5.410156 -0.164062 4.296875 -0.78125 C 3.179688 -1.40625 2.296875 -2.273438 1.640625 -3.390625 C 0.992188 -4.503906 0.671875 -5.753906 0.671875 -7.140625 C 0.671875 -8.523438 0.992188 -9.769531 1.640625 -10.875 C 2.296875 -11.976562 3.179688 -12.835938 4.296875 -13.453125 C 5.410156 -14.078125 6.632812 -14.390625 7.96875 -14.390625 C 9.300781 -14.390625 10.519531 -14.078125 11.625 -13.453125 C 12.738281 -12.835938 13.613281 -11.976562 14.25 -10.875 C 14.894531 -9.769531 15.21875 -8.523438 15.21875 -7.140625 C 15.21875 -5.753906 14.894531 -4.503906 14.25 -3.390625 C 13.601562 -2.273438 12.726562 -1.40625 11.625 -0.78125 C 10.519531 -0.164062 9.300781 0.140625 7.96875 0.140625 Z M 7.96875 -3.015625 C 9.101562 -3.015625 10.007812 -3.390625 10.6875 -4.140625 C 11.363281 -4.898438 11.703125 -5.898438 11.703125 -7.140625 C 11.703125 -8.390625 11.363281 -9.390625 10.6875 -10.140625 C 10.007812 -10.890625 9.101562 -11.265625 7.96875 -11.265625 C 6.820312 -11.265625 5.90625 -10.890625 5.21875 -10.140625 C 4.539062 -9.398438 4.203125 -8.398438 4.203125 -7.140625 C 4.203125 -5.878906 4.539062 -4.875 5.21875 -4.125 C 5.90625 -3.382812 6.820312 -3.015625 7.96875 -3.015625 Z M 7.96875 -3.015625 "/></g></g></g><g fill="#d9d9d9" fill-opacity="1"><g transform="translate(123.658892, 320.462548)"><g><path d="M 13.953125 0 L 10.5 0 L 4.71875 -8.75 L 4.71875 0 L 1.25 0 L 1.25 -14.1875 L 4.71875 -14.1875 L 10.5 -5.390625 L 10.5 -14.1875 L 13.953125 -14.1875 Z M 13.953125 0 "/></g></g></g><g fill="#d9d9d9" fill-opacity="1"><g transform="translate(141.384002, 320.462548)"><g><path d="M 6.390625 0.140625 C 5.347656 0.140625 4.414062 -0.0234375 3.59375 -0.359375 C 2.769531 -0.703125 2.113281 -1.203125 1.625 -1.859375 C 1.132812 -2.515625 0.875 -3.3125 0.84375 -4.25 L 4.53125 -4.25 C 4.582031 -3.71875 4.765625 -3.3125 5.078125 -3.03125 C 5.390625 -2.757812 5.789062 -2.625 6.28125 -2.625 C 6.800781 -2.625 7.207031 -2.742188 7.5 -2.984375 C 7.800781 -3.222656 7.953125 -3.550781 7.953125 -3.96875 C 7.953125 -4.3125 7.832031 -4.597656 7.59375 -4.828125 C 7.351562 -5.054688 7.0625 -5.242188 6.71875 -5.390625 C 6.375 -5.546875 5.882812 -5.71875 5.25 -5.90625 C 4.332031 -6.1875 3.582031 -6.46875 3 -6.75 C 2.425781 -7.03125 1.929688 -7.445312 1.515625 -8 C 1.097656 -8.550781 0.890625 -9.273438 0.890625 -10.171875 C 0.890625 -11.492188 1.367188 -12.523438 2.328125 -13.265625 C 3.285156 -14.015625 4.53125 -14.390625 6.0625 -14.390625 C 7.625 -14.390625 8.882812 -14.015625 9.84375 -13.265625 C 10.800781 -12.523438 11.316406 -11.488281 11.390625 -10.15625 L 7.640625 -10.15625 C 7.617188 -10.613281 7.453125 -10.972656 7.140625 -11.234375 C 6.828125 -11.492188 6.425781 -11.625 5.9375 -11.625 C 5.519531 -11.625 5.179688 -11.507812 4.921875 -11.28125 C 4.671875 -11.0625 4.546875 -10.742188 4.546875 -10.328125 C 4.546875 -9.867188 4.757812 -9.507812 5.1875 -9.25 C 5.625 -9 6.300781 -8.726562 7.21875 -8.4375 C 8.132812 -8.125 8.878906 -7.820312 9.453125 -7.53125 C 10.023438 -7.25 10.519531 -6.835938 10.9375 -6.296875 C 11.351562 -5.765625 11.5625 -5.070312 11.5625 -4.21875 C 11.5625 -3.414062 11.351562 -2.679688 10.9375 -2.015625 C 10.53125 -1.359375 9.9375 -0.832031 9.15625 -0.4375 C 8.375 -0.0507812 7.453125 0.140625 6.390625 0.140625 Z M 6.390625 0.140625 "/></g></g></g><g fill="#d9d9d9" fill-opacity="1"><g transform="translate(156.340397, 320.462548)"><g><path d="M 4.65625 -14.1875 L 4.65625 -5.703125 C 4.65625 -4.847656 4.863281 -4.191406 5.28125 -3.734375 C 5.695312 -3.273438 6.304688 -3.046875 7.109375 -3.046875 C 7.921875 -3.046875 8.539062 -3.273438 8.96875 -3.734375 C 9.40625 -4.191406 9.625 -4.847656 9.625 -5.703125 L 9.625 -14.1875 L 13.078125 -14.1875 L 13.078125 -5.71875 C 13.078125 -4.457031 12.804688 -3.382812 12.265625 -2.5 C 11.734375 -1.625 11.007812 -0.960938 10.09375 -0.515625 C 9.1875 -0.078125 8.175781 0.140625 7.0625 0.140625 C 5.9375 0.140625 4.929688 -0.078125 4.046875 -0.515625 C 3.171875 -0.953125 2.472656 -1.613281 1.953125 -2.5 C 1.441406 -3.382812 1.1875 -4.457031 1.1875 -5.71875 L 1.1875 -14.1875 Z M 4.65625 -14.1875 "/></g></g></g><g fill="#d9d9d9" fill-opacity="1"><g transform="translate(173.115657, 320.462548)"><g><path d="M 4.71875 -2.671875 L 9.234375 -2.671875 L 9.234375 0 L 1.25 0 L 1.25 -14.1875 L 4.71875 -14.1875 Z M 4.71875 -2.671875 "/></g></g></g><g fill="#d9d9d9" fill-opacity="1"><g transform="translate(185.283144, 320.462548)"><g><path d="M 11.46875 -14.1875 L 11.46875 -11.421875 L 7.703125 -11.421875 L 7.703125 0 L 4.25 0 L 4.25 -11.421875 L 0.484375 -11.421875 L 0.484375 -14.1875 Z M 11.46875 -14.1875 "/></g></g></g><g fill="#d9d9d9" fill-opacity="1"><g transform="translate(199.75452, 320.462548)"><g><path d="M 4.71875 -14.1875 L 4.71875 0 L 1.25 0 L 1.25 -14.1875 Z M 4.71875 -14.1875 "/></g></g></g><g fill="#d9d9d9" fill-opacity="1"><g transform="translate(208.243849, 320.462548)"><g><path d="M 13.953125 0 L 10.5 0 L 4.71875 -8.75 L 4.71875 0 L 1.25 0 L 1.25 -14.1875 L 4.71875 -14.1875 L 10.5 -5.390625 L 10.5 -14.1875 L 13.953125 -14.1875 Z M 13.953125 0 "/></g></g></g><g fill="#d9d9d9" fill-opacity="1"><g transform="translate(225.968959, 320.462548)"><g><path d="M 10.671875 -9.703125 C 10.421875 -10.171875 10.054688 -10.53125 9.578125 -10.78125 C 9.097656 -11.03125 8.535156 -11.15625 7.890625 -11.15625 C 6.765625 -11.15625 5.863281 -10.785156 5.1875 -10.046875 C 4.519531 -9.316406 4.1875 -8.335938 4.1875 -7.109375 C 4.1875 -5.804688 4.539062 -4.785156 5.25 -4.046875 C 5.957031 -3.316406 6.929688 -2.953125 8.171875 -2.953125 C 9.015625 -2.953125 9.726562 -3.164062 10.3125 -3.59375 C 10.90625 -4.03125 11.335938 -4.648438 11.609375 -5.453125 L 7.21875 -5.453125 L 7.21875 -8 L 14.734375 -8 L 14.734375 -4.796875 C 14.484375 -3.929688 14.050781 -3.128906 13.4375 -2.390625 C 12.820312 -1.648438 12.039062 -1.050781 11.09375 -0.59375 C 10.15625 -0.132812 9.09375 0.09375 7.90625 0.09375 C 6.5 0.09375 5.242188 -0.207031 4.140625 -0.8125 C 3.046875 -1.425781 2.191406 -2.28125 1.578125 -3.375 C 0.972656 -4.46875 0.671875 -5.710938 0.671875 -7.109375 C 0.671875 -8.515625 0.972656 -9.765625 1.578125 -10.859375 C 2.191406 -11.960938 3.046875 -12.820312 4.140625 -13.4375 C 5.234375 -14.050781 6.484375 -14.359375 7.890625 -14.359375 C 9.585938 -14.359375 11.019531 -13.945312 12.1875 -13.125 C 13.351562 -12.300781 14.125 -11.160156 14.5 -9.703125 Z M 10.671875 -9.703125 "/></g></g></g><g fill="#d9d9d9" fill-opacity="1"><g transform="translate(243.896159, 320.462548)"><g/></g></g><g fill="#d9d9d9" fill-opacity="1"><g transform="translate(250.708096, 320.462548)"><g><path d="M 4.71875 -2.671875 L 9.234375 -2.671875 L 9.234375 0 L 1.25 0 L 1.25 -14.1875 L 4.71875 -14.1875 Z M 4.71875 -2.671875 "/></g></g></g><g fill="#d9d9d9" fill-opacity="1"><g transform="translate(262.875575, 320.462548)"><g><path d="M 4.71875 -2.671875 L 9.234375 -2.671875 L 9.234375 0 L 1.25 0 L 1.25 -14.1875 L 4.71875 -14.1875 Z M 4.71875 -2.671875 "/></g></g></g><g fill="#d9d9d9" fill-opacity="1"><g transform="translate(275.043053, 320.462548)"><g><path d="M 12.078125 -9.625 C 12.078125 -8.800781 11.882812 -8.046875 11.5 -7.359375 C 11.125 -6.679688 10.546875 -6.132812 9.765625 -5.71875 C 8.984375 -5.300781 8.015625 -5.09375 6.859375 -5.09375 L 4.71875 -5.09375 L 4.71875 0 L 1.25 0 L 1.25 -14.1875 L 6.859375 -14.1875 C 7.984375 -14.1875 8.9375 -13.988281 9.71875 -13.59375 C 10.5 -13.207031 11.085938 -12.671875 11.484375 -11.984375 C 11.878906 -11.296875 12.078125 -10.507812 12.078125 -9.625 Z M 6.59375 -7.84375 C 7.25 -7.84375 7.738281 -8 8.0625 -8.3125 C 8.382812 -8.625 8.546875 -9.0625 8.546875 -9.625 C 8.546875 -10.1875 8.382812 -10.625 8.0625 -10.9375 C 7.738281 -11.25 7.25 -11.40625 6.59375 -11.40625 L 4.71875 -11.40625 L 4.71875 -7.84375 Z M 6.59375 -7.84375 "/></g></g></g><g fill="#d9d9d9" fill-opacity="1"><g transform="translate(220.865619, 270.543922)"><g><path d="M 2.984375 -4.1875 C 3.585938 -4.1875 4.0625 -4.035156 4.40625 -3.734375 C 4.757812 -3.429688 4.992188 -3.066406 5.109375 -2.640625 C 5.234375 -2.222656 5.234375 -1.796875 5.109375 -1.359375 C 4.984375 -0.921875 4.742188 -0.550781 4.390625 -0.25 C 4.035156 0.0390625 3.566406 0.1875 2.984375 0.1875 C 2.410156 0.1875 1.945312 0.0390625 1.59375 -0.25 C 1.238281 -0.550781 1 -0.914062 0.875 -1.34375 C 0.757812 -1.769531 0.757812 -2.195312 0.875 -2.625 C 1 -3.0625 1.238281 -3.429688 1.59375 -3.734375 C 1.945312 -4.035156 2.410156 -4.1875 2.984375 -4.1875 Z M 2.984375 -4.1875 "/></g></g></g><g fill="#d9d9d9" fill-opacity="1"><g transform="translate(231.562309, 270.543922)"><g><path d="M 2.984375 -4.1875 C 3.585938 -4.1875 4.0625 -4.035156 4.40625 -3.734375 C 4.757812 -3.429688 4.992188 -3.066406 5.109375 -2.640625 C 5.234375 -2.222656 5.234375 -1.796875 5.109375 -1.359375 C 4.984375 -0.921875 4.742188 -0.550781 4.390625 -0.25 C 4.035156 0.0390625 3.566406 0.1875 2.984375 0.1875 C 2.410156 0.1875 1.945312 0.0390625 1.59375 -0.25 C 1.238281 -0.550781 1 -0.914062 0.875 -1.34375 C 0.757812 -1.769531 0.757812 -2.195312 0.875 -2.625 C 1 -3.0625 1.238281 -3.429688 1.59375 -3.734375 C 1.945312 -4.035156 2.410156 -4.1875 2.984375 -4.1875 Z M 2.984375 -4.1875 "/></g></g></g></svg>